<svg width="568" height="559" viewBox="0 0 568 559" fill="none" xmlns="http://www.w3.org/2000/svg">
<line x1="76.0099" y1="540.141" x2="2.00993" y2="19.1406" stroke="white" stroke-width="2"/>
<line x1="492.01" y1="539.858" x2="567.01" y2="18.8575" stroke="white" stroke-width="2"/>
<mask id="mask0_1150_53" style="mask-type:alpha" maskUnits="userSpaceOnUse" x="75" y="523" width="418" height="35">
<path d="M492 540.5C492 540.67 491.899 541.012 491.285 541.518C490.683 542.014 489.727 542.548 488.375 543.101C485.681 544.204 481.65 545.288 476.382 546.331C465.86 548.414 450.6 550.295 431.702 551.878C393.916 555.042 341.695 557 284 557C226.305 557 174.084 555.042 136.298 551.878C117.4 550.295 102.14 548.414 91.6185 546.331C86.3499 545.288 82.3188 544.204 79.6248 543.101C78.2731 542.548 77.3168 542.014 76.7152 541.518C76.1013 541.012 76 540.67 76 540.5C76 540.33 76.1013 539.988 76.7152 539.482C77.3168 538.986 78.2731 538.452 79.6248 537.899C82.3188 536.796 86.3499 535.712 91.6185 534.669C102.14 532.586 117.4 530.705 136.298 529.122C174.084 525.958 226.305 524 284 524C341.695 524 393.916 525.958 431.702 529.122C450.6 530.705 465.86 532.586 476.382 534.669C481.65 535.712 485.681 536.796 488.375 537.899C489.727 538.452 490.683 538.986 491.285 539.482C491.899 539.988 492 540.33 492 540.5Z" stroke="white" stroke-width="2"/>
</mask>
<g mask="url(#mask0_1150_53)">
<rect x="62" y="515" width="441" height="25" fill="white"/>
</g>
<mask id="mask1_1150_53" style="mask-type:alpha" maskUnits="userSpaceOnUse" x="1" y="1" width="567" height="35">
<path d="M567 18.5C567 18.5298 566.95 18.8677 566.017 19.4347C565.156 19.9578 563.811 20.5085 561.951 21.0695C558.247 22.1869 552.736 23.2774 545.577 24.3223C531.272 26.4099 510.546 28.2934 484.903 29.8763C433.626 33.0415 362.773 35 284.5 35C206.227 35 135.374 33.0415 84.0968 29.8763C58.4543 28.2934 37.7279 26.4099 23.4232 24.3223C16.264 23.2774 10.7528 22.1869 7.04852 21.0695C5.18893 20.5085 3.84356 19.9578 2.98309 19.4347C2.0502 18.8677 2 18.5298 2 18.5C2 18.4702 2.0502 18.1323 2.98309 17.5653C3.84356 17.0422 5.18893 16.4915 7.04852 15.9305C10.7528 14.8131 16.264 13.7226 23.4232 12.6777C37.7279 10.5901 58.4543 8.70661 84.0968 7.12373C135.374 3.95848 206.227 2 284.5 2C362.773 2 433.626 3.95848 484.903 7.12373C510.546 8.70661 531.272 10.5901 545.577 12.6777C552.736 13.7226 558.247 14.8131 561.951 15.9305C563.811 16.4915 565.156 17.0422 566.017 17.5653C566.95 18.1323 567 18.4702 567 18.5Z" stroke="white" stroke-width="2"/>
</mask>
<g mask="url(#mask1_1150_53)">
<rect width="568" height="19" fill="white"/>
</g>
</svg>
