<svg width="11" height="14" viewBox="0 0 11 14" fill="none" xmlns="http://www.w3.org/2000/svg">
<path d="M4.87496 2.58757L5.49996 0L6.12474 2.58795C6.33872 3.47538 6.69966 4.24314 7.18439 4.85967C7.66624 5.47286 8.26951 5.93369 8.96681 6.20533L11 7.00074L8.96681 7.79467C8.2684 8.06812 7.66565 8.52746 7.18121 9.14325C6.69998 9.75648 6.33847 10.5242 6.12445 11.4117L5.50003 14L4.87504 11.4117C4.66477 10.5412 4.31308 9.78516 3.83182 9.15871C3.33724 8.52787 2.73338 8.06777 2.03319 7.7943L0 7.00036L2.03319 6.20495C2.73338 5.93113 3.33695 5.47177 3.8182 4.85929C4.29914 4.24719 4.65949 3.47941 4.87496 2.58757Z" fill="#1F00FF"/>
</svg>
