<svg width="589" height="276" viewBox="0 0 589 276" fill="none" xmlns="http://www.w3.org/2000/svg">
<path d="M3 271L69.9347 222.217L145.869 173.434L221.593 153.434L284.997 114.009H337.601L419.583 93.3451L467.188 60.2478L514.307 45.646H561.911L587 4.5" stroke="url(#paint0_linear_1019_597)" stroke-width="3"/>
<path d="M417.667 274C417.667 274.736 418.264 275.333 419 275.333C419.736 275.333 420.333 274.736 420.333 274C420.333 273.264 419.736 272.667 419 272.667C418.264 272.667 417.667 273.264 417.667 274ZM418.75 95L418.75 95.9944L419.25 95.9944L419.25 95L418.75 95ZM418.75 97.9833L418.75 99.9722L419.25 99.9722L419.25 97.9833L418.75 97.9833ZM418.75 101.961L418.75 103.95L419.25 103.95L419.25 101.961L418.75 101.961ZM418.75 105.939L418.75 107.928L419.25 107.928L419.25 105.939L418.75 105.939ZM418.75 109.917L418.75 111.906L419.25 111.906L419.25 109.917L418.75 109.917ZM418.75 113.894L418.75 115.883L419.25 115.883L419.25 113.894L418.75 113.894ZM418.75 117.872L418.75 119.861L419.25 119.861L419.25 117.872L418.75 117.872ZM418.75 121.85L418.75 123.839L419.25 123.839L419.25 121.85L418.75 121.85ZM418.75 125.828L418.75 127.817L419.25 127.817L419.25 125.828L418.75 125.828ZM418.75 129.806L418.75 131.794L419.25 131.794L419.25 129.806L418.75 129.806ZM418.75 133.783L418.75 135.772L419.25 135.772L419.25 133.783L418.75 133.783ZM418.75 137.761L418.75 139.75L419.25 139.75L419.25 137.761L418.75 137.761ZM418.75 141.739L418.75 143.728L419.25 143.728L419.25 141.739L418.75 141.739ZM418.75 145.717L418.75 147.706L419.25 147.706L419.25 145.717L418.75 145.717ZM418.75 149.694L418.75 151.683L419.25 151.683L419.25 149.694L418.75 149.694ZM418.75 153.672L418.75 155.661L419.25 155.661L419.25 153.672L418.75 153.672ZM418.75 157.65L418.75 159.639L419.25 159.639L419.25 157.65L418.75 157.65ZM418.75 161.628L418.75 163.617L419.25 163.617L419.25 161.628L418.75 161.628ZM418.75 165.606L418.75 167.594L419.25 167.594L419.25 165.606L418.75 165.606ZM418.75 169.583L418.75 171.572L419.25 171.572L419.25 169.583L418.75 169.583ZM418.75 173.561L418.75 175.55L419.25 175.55L419.25 173.561L418.75 173.561ZM418.75 177.539L418.75 179.528L419.25 179.528L419.25 177.539L418.75 177.539ZM418.75 181.517L418.75 183.506L419.25 183.506L419.25 181.517L418.75 181.517ZM418.75 185.494L418.75 187.483L419.25 187.483L419.25 185.494L418.75 185.494ZM418.75 189.472L418.75 191.461L419.25 191.461L419.25 189.472L418.75 189.472ZM418.75 193.45L418.75 195.439L419.25 195.439L419.25 193.45L418.75 193.45ZM418.75 197.428L418.75 199.417L419.25 199.417L419.25 197.428L418.75 197.428ZM418.75 201.406L418.75 203.394L419.25 203.394L419.25 201.406L418.75 201.406ZM418.75 205.383L418.75 207.372L419.25 207.372L419.25 205.383L418.75 205.383ZM418.75 209.361L418.75 211.35L419.25 211.35L419.25 209.361L418.75 209.361ZM418.75 213.339L418.75 215.328L419.25 215.328L419.25 213.339L418.75 213.339ZM418.75 217.317L418.75 219.306L419.25 219.306L419.25 217.317L418.75 217.317ZM418.75 221.295L418.75 223.283L419.25 223.283L419.25 221.295L418.75 221.295ZM418.75 225.272L418.75 227.261L419.25 227.261L419.25 225.272L418.75 225.272ZM418.75 229.25L418.75 231.239L419.25 231.239L419.25 229.25L418.75 229.25ZM418.75 233.228L418.75 235.217L419.25 235.217L419.25 233.228L418.75 233.228ZM418.75 237.206L418.75 239.195L419.25 239.195L419.25 237.206L418.75 237.206ZM418.75 241.183L418.75 243.172L419.25 243.172L419.25 241.183L418.75 241.183ZM418.75 245.161L418.75 247.15L419.25 247.15L419.25 245.161L418.75 245.161ZM418.75 249.139L418.75 251.128L419.25 251.128L419.25 249.139L418.75 249.139ZM418.75 253.117L418.75 255.106L419.25 255.106L419.25 253.117L418.75 253.117ZM418.75 257.095L418.75 259.083L419.25 259.083L419.25 257.095L418.75 257.095ZM418.75 261.072L418.75 263.061L419.25 263.061L419.25 261.072L418.75 261.072ZM418.75 265.05L418.75 267.039L419.25 267.039L419.25 265.05L418.75 265.05ZM418.75 269.028L418.75 271.017L419.25 271.017L419.25 269.028L418.75 269.028ZM418.75 273.006L418.75 274L419.25 274L419.25 273.006L418.75 273.006Z" fill="#1F00FF"/>
<path d="M280.667 274C280.667 274.736 281.264 275.333 282 275.333C282.736 275.333 283.333 274.736 283.333 274C283.333 273.264 282.736 272.667 282 272.667C281.264 272.667 280.667 273.264 280.667 274ZM281.75 116L281.75 116.988L282.25 116.988L282.25 116L281.75 116ZM281.75 118.963L281.75 120.938L282.25 120.938L282.25 118.963L281.75 118.963ZM281.75 122.912L281.75 124.887L282.25 124.887L282.25 122.912L281.75 122.912ZM281.75 126.863L281.75 128.838L282.25 128.838L282.25 126.863L281.75 126.863ZM281.75 130.813L281.75 132.788L282.25 132.788L282.25 130.813L281.75 130.813ZM281.75 134.763L281.75 136.738L282.25 136.738L282.25 134.763L281.75 134.763ZM281.75 138.713L281.75 140.688L282.25 140.688L282.25 138.713L281.75 138.713ZM281.75 142.663L281.75 144.638L282.25 144.638L282.25 142.663L281.75 142.663ZM281.75 146.613L281.75 148.588L282.25 148.588L282.25 146.613L281.75 146.613ZM281.75 150.563L281.75 152.537L282.25 152.537L282.25 150.563L281.75 150.563ZM281.75 154.512L281.75 156.487L282.25 156.487L282.25 154.512L281.75 154.512ZM281.75 158.462L281.75 160.437L282.25 160.437L282.25 158.462L281.75 158.462ZM281.75 162.412L281.75 164.387L282.25 164.387L282.25 162.412L281.75 162.412ZM281.75 166.362L281.75 168.337L282.25 168.337L282.25 166.362L281.75 166.362ZM281.75 170.312L281.75 172.287L282.25 172.287L282.25 170.312L281.75 170.312ZM281.75 174.262L281.75 176.237L282.25 176.237L282.25 174.262L281.75 174.262ZM281.75 178.212L281.75 180.187L282.25 180.187L282.25 178.212L281.75 178.212ZM281.75 182.162L281.75 184.137L282.25 184.137L282.25 182.162L281.75 182.162ZM281.75 186.112L281.75 188.087L282.25 188.087L282.25 186.112L281.75 186.112ZM281.75 190.062L281.75 192.037L282.25 192.037L282.25 190.062L281.75 190.062ZM281.75 194.012L281.75 195.987L282.25 195.987L282.25 194.012L281.75 194.012ZM281.75 197.962L281.75 199.937L282.25 199.937L282.25 197.962L281.75 197.962ZM281.75 201.912L281.75 203.887L282.25 203.887L282.25 201.912L281.75 201.912ZM281.75 205.862L281.75 207.837L282.25 207.837L282.25 205.862L281.75 205.862ZM281.75 209.812L281.75 211.787L282.25 211.787L282.25 209.812L281.75 209.812ZM281.75 213.762L281.75 215.737L282.25 215.737L282.25 213.762L281.75 213.762ZM281.75 217.712L281.75 219.687L282.25 219.687L282.25 217.712L281.75 217.712ZM281.75 221.662L281.75 223.637L282.25 223.637L282.25 221.662L281.75 221.662ZM281.75 225.612L281.75 227.587L282.25 227.587L282.25 225.612L281.75 225.612ZM281.75 229.562L281.75 231.537L282.25 231.537L282.25 229.562L281.75 229.562ZM281.75 233.512L281.75 235.487L282.25 235.487L282.25 233.512L281.75 233.512ZM281.75 237.462L281.75 239.437L282.25 239.437L282.25 237.462L281.75 237.462ZM281.75 241.412L281.75 243.387L282.25 243.387L282.25 241.412L281.75 241.412ZM281.75 245.362L281.75 247.337L282.25 247.337L282.25 245.362L281.75 245.362ZM281.75 249.312L281.75 251.287L282.25 251.287L282.25 249.312L281.75 249.312ZM281.75 253.262L281.75 255.237L282.25 255.237L282.25 253.262L281.75 253.262ZM281.75 257.212L281.75 259.187L282.25 259.187L282.25 257.212L281.75 257.212ZM281.75 261.162L281.75 263.137L282.25 263.137L282.25 261.162L281.75 261.162ZM281.75 265.112L281.75 267.087L282.25 267.087L282.25 265.112L281.75 265.112ZM281.75 269.063L281.75 271.038L282.25 271.038L282.25 269.063L281.75 269.063ZM281.75 273.013L281.75 274L282.25 274L282.25 273.013L281.75 273.013Z" fill="#1F00FF"/>
<path d="M0.666667 274C0.666667 274.736 1.26362 275.333 2 275.333C2.73638 275.333 3.33333 274.736 3.33333 274C3.33333 273.264 2.73638 272.667 2 272.667C1.26362 272.667 0.666667 273.264 0.666667 274ZM1.75 273L1.75 273.25L2.25 273.25L2.25 273L1.75 273ZM1.75 273.75L1.75 274L2.25 274L2.25 273.75L1.75 273.75Z" fill="#1F00FF"/>
<path d="M141.667 272C141.667 272.736 142.264 273.333 143 273.333C143.736 273.333 144.333 272.736 144.333 272C144.333 271.264 143.736 270.667 143 270.667C142.264 270.667 141.667 271.264 141.667 272ZM142.75 176L142.75 177L143.25 177L143.25 176L142.75 176ZM142.75 179L142.75 181L143.25 181L143.25 179L142.75 179ZM142.75 183L142.75 185L143.25 185L143.25 183L142.75 183ZM142.75 187L142.75 189L143.25 189L143.25 187L142.75 187ZM142.75 191L142.75 193L143.25 193L143.25 191L142.75 191ZM142.75 195L142.75 197L143.25 197L143.25 195L142.75 195ZM142.75 199L142.75 201L143.25 201L143.25 199L142.75 199ZM142.75 203L142.75 205L143.25 205L143.25 203L142.75 203ZM142.75 207L142.75 209L143.25 209L143.25 207L142.75 207ZM142.75 211L142.75 213L143.25 213L143.25 211L142.75 211ZM142.75 215L142.75 217L143.25 217L143.25 215L142.75 215ZM142.75 219L142.75 221L143.25 221L143.25 219L142.75 219ZM142.75 223L142.75 225L143.25 225L143.25 223L142.75 223ZM142.75 227L142.75 229L143.25 229L143.25 227L142.75 227ZM142.75 231L142.75 233L143.25 233L143.25 231L142.75 231ZM142.75 235L142.75 237L143.25 237L143.25 235L142.75 235ZM142.75 239L142.75 241L143.25 241L143.25 239L142.75 239ZM142.75 243L142.75 245L143.25 245L143.25 243L142.75 243ZM142.75 247L142.75 249L143.25 249L143.25 247L142.75 247ZM142.75 251L142.75 253L143.25 253L143.25 251L142.75 251ZM142.75 255L142.75 257L143.25 257L143.25 255L142.75 255ZM142.75 259L142.75 261L143.25 261L143.25 259L142.75 259ZM142.75 263L142.75 265L143.25 265L143.25 263L142.75 263ZM142.75 267L142.75 269L143.25 269L143.25 267L142.75 267ZM142.75 271L142.75 272L143.25 272L143.25 271L142.75 271Z" fill="#1F00FF"/>
<path opacity="0.08" d="M582.001 274H1L71.1897 222.209L143.378 176.452L219.312 155.333L282.258 116.113H335.213L417.642 95.4972L464.102 62.8136L511.561 47.7288H559.52L583 7L582.001 274Z" fill="#1F00FF"/>
<path d="M557.667 274C557.667 274.736 558.264 275.333 559 275.333C559.736 275.333 560.333 274.736 560.333 274C560.333 273.264 559.736 272.667 559 272.667C558.264 272.667 557.667 273.264 557.667 274ZM558.75 48L558.75 48.9912L559.25 48.9912L559.25 48L558.75 48ZM558.75 50.9737L558.75 52.9561L559.25 52.9561L559.25 50.9737L558.75 50.9737ZM558.75 54.9386L558.75 56.9211L559.25 56.9211L559.25 54.9386L558.75 54.9386ZM558.75 58.9035L558.75 60.886L559.25 60.886L559.25 58.9035L558.75 58.9035ZM558.75 62.8684L558.75 64.8509L559.25 64.8509L559.25 62.8684L558.75 62.8684ZM558.75 66.8333L558.75 68.8158L559.25 68.8158L559.25 66.8333L558.75 66.8333ZM558.75 70.7982L558.75 72.7807L559.25 72.7807L559.25 70.7982L558.75 70.7982ZM558.75 74.7632L558.75 76.7456L559.25 76.7456L559.25 74.7632L558.75 74.7632ZM558.75 78.7281L558.75 80.7105L559.25 80.7105L559.25 78.7281L558.75 78.7281ZM558.75 82.693L558.75 84.6754L559.25 84.6754L559.25 82.693L558.75 82.693ZM558.75 86.6579L558.75 88.6404L559.25 88.6404L559.25 86.6579L558.75 86.6579ZM558.75 90.6228L558.75 92.6053L559.25 92.6053L559.25 90.6228L558.75 90.6228ZM558.75 94.5877L558.75 96.5702L559.25 96.5702L559.25 94.5877L558.75 94.5877ZM558.75 98.5526L558.75 100.535L559.25 100.535L559.25 98.5526L558.75 98.5526ZM558.75 102.518L558.75 104.5L559.25 104.5L559.25 102.518L558.75 102.518ZM558.75 106.482L558.75 108.465L559.25 108.465L559.25 106.482L558.75 106.482ZM558.75 110.447L558.75 112.43L559.25 112.43L559.25 110.447L558.75 110.447ZM558.75 114.412L558.75 116.395L559.25 116.395L559.25 114.412L558.75 114.412ZM558.75 118.377L558.75 120.36L559.25 120.36L559.25 118.377L558.75 118.377ZM558.75 122.342L558.75 124.325L559.25 124.325L559.25 122.342L558.75 122.342ZM558.75 126.307L558.75 128.289L559.25 128.289L559.25 126.307L558.75 126.307ZM558.75 130.272L558.75 132.254L559.25 132.254L559.25 130.272L558.75 130.272ZM558.75 134.237L558.75 136.219L559.25 136.219L559.25 134.237L558.75 134.237ZM558.75 138.202L558.75 140.184L559.25 140.184L559.25 138.202L558.75 138.202ZM558.75 142.167L558.75 144.149L559.25 144.149L559.25 142.167L558.75 142.167ZM558.75 146.132L558.75 148.114L559.25 148.114L559.25 146.132L558.75 146.132ZM558.75 150.096L558.75 152.079L559.25 152.079L559.25 150.096L558.75 150.096ZM558.75 154.061L558.75 156.044L559.25 156.044L559.25 154.061L558.75 154.061ZM558.75 158.026L558.75 160.009L559.25 160.009L559.25 158.026L558.75 158.026ZM558.75 161.991L558.75 163.974L559.25 163.974L559.25 161.991L558.75 161.991ZM558.75 165.956L558.75 167.938L559.25 167.938L559.25 165.956L558.75 165.956ZM558.75 169.921L558.75 171.903L559.25 171.903L559.25 169.921L558.75 169.921ZM558.75 173.886L558.75 175.868L559.25 175.868L559.25 173.886L558.75 173.886ZM558.75 177.851L558.75 179.833L559.25 179.833L559.25 177.851L558.75 177.851ZM558.75 181.816L558.75 183.798L559.25 183.798L559.25 181.816L558.75 181.816ZM558.75 185.781L558.75 187.763L559.25 187.763L559.25 185.781L558.75 185.781ZM558.75 189.745L558.75 191.728L559.25 191.728L559.25 189.745L558.75 189.745ZM558.75 193.71L558.75 195.693L559.25 195.693L559.25 193.71L558.75 193.71ZM558.75 197.675L558.75 199.658L559.25 199.658L559.25 197.675L558.75 197.675ZM558.75 201.64L558.75 203.623L559.25 203.623L559.25 201.64L558.75 201.64ZM558.75 205.605L558.75 207.588L559.25 207.588L559.25 205.605L558.75 205.605ZM558.75 209.57L558.75 211.552L559.25 211.552L559.25 209.57L558.75 209.57ZM558.75 213.535L558.75 215.517L559.25 215.517L559.25 213.535L558.75 213.535ZM558.75 217.5L558.75 219.482L559.25 219.482L559.25 217.5L558.75 217.5ZM558.75 221.465L558.75 223.447L559.25 223.447L559.25 221.465L558.75 221.465ZM558.75 225.43L558.75 227.412L559.25 227.412L559.25 225.43L558.75 225.43ZM558.75 229.395L558.75 231.377L559.25 231.377L559.25 229.395L558.75 229.395ZM558.75 233.359L558.75 235.342L559.25 235.342L559.25 233.359L558.75 233.359ZM558.75 237.324L558.75 239.307L559.25 239.307L559.25 237.324L558.75 237.324ZM558.75 241.289L558.75 243.272L559.25 243.272L559.25 241.289L558.75 241.289ZM558.75 245.254L558.75 247.237L559.25 247.237L559.25 245.254L558.75 245.254ZM558.75 249.219L558.75 251.201L559.25 251.201L559.25 249.219L558.75 249.219ZM558.75 253.184L558.75 255.166L559.25 255.166L559.25 253.184L558.75 253.184ZM558.75 257.149L558.75 259.131L559.25 259.131L559.25 257.149L558.75 257.149ZM558.75 261.114L558.75 263.096L559.25 263.096L559.25 261.114L558.75 261.114ZM558.75 265.079L558.75 267.061L559.25 267.061L559.25 265.079L558.75 265.079ZM558.75 269.044L558.75 271.026L559.25 271.026L559.25 269.044L558.75 269.044ZM558.75 273.008L558.75 274L559.25 274L559.25 273.008L558.75 273.008Z" fill="#1F00FF"/>
<circle cx="584" cy="5" r="5" fill="#1F00FF"/>
<defs>
<linearGradient id="paint0_linear_1019_597" x1="719.5" y1="-122" x2="50" y2="230.5" gradientUnits="userSpaceOnUse">
<stop stop-color="#1F00FF"/>
<stop offset="1" stop-color="#1F00FF" stop-opacity="0"/>
</linearGradient>
</defs>
</svg>
