<svg width="88" height="33" viewBox="0 0 88 33" fill="none" xmlns="http://www.w3.org/2000/svg">
<mask id="path-1-inside-1_1019_598" fill="white">
<path fill-rule="evenodd" clip-rule="evenodd" d="M2 0C0.89543 0 0 0.895431 0 2V31C0 32.1046 0.895429 33 2 33H80C81.1046 33 82 32.1046 82 31V21.3301L88 17L82 12.6699V2C82 0.895431 81.1046 0 80 0H2Z"/>
</mask>
<path fill-rule="evenodd" clip-rule="evenodd" d="M2 0C0.89543 0 0 0.895431 0 2V31C0 32.1046 0.895429 33 2 33H80C81.1046 33 82 32.1046 82 31V21.3301L88 17L82 12.6699V2C82 0.895431 81.1046 0 80 0H2Z" fill="white"/>
<path d="M82 21.3301L81.4148 20.5192L81 20.8186V21.3301H82ZM88 17L88.5852 17.8109L89.7088 17L88.5852 16.1891L88 17ZM82 12.6699H81V13.1814L81.4148 13.4808L82 12.6699ZM1 2C1 1.44772 1.44772 1 2 1V-1C0.343146 -1 -1 0.343146 -1 2H1ZM1 31V2H-1V31H1ZM2 32C1.44771 32 1 31.5523 1 31H-1C-1 32.6569 0.343142 34 2 34V32ZM80 32H2V34H80V32ZM81 31C81 31.5523 80.5523 32 80 32V34C81.6569 34 83 32.6569 83 31H81ZM81 21.3301V31H83V21.3301H81ZM87.4148 16.1891L81.4148 20.5192L82.5852 22.141L88.5852 17.8109L87.4148 16.1891ZM81.4148 13.4808L87.4148 17.8109L88.5852 16.1891L82.5852 11.859L81.4148 13.4808ZM81 2V12.6699H83V2H81ZM80 1C80.5523 1 81 1.44772 81 2H83C83 0.343146 81.6569 -1 80 -1V1ZM2 1H80V-1H2V1Z" fill="#1F00FF" mask="url(#path-1-inside-1_1019_598)"/>
</svg>
