<svg width="64" height="32" viewBox="0 0 64 32" fill="none" xmlns="http://www.w3.org/2000/svg">
<g clip-path="url(#clip0_1019_537)">
<path d="M48.1997 31.6026C39.4948 31.6026 32.3984 24.5062 32.3984 15.8013C32.3984 7.09639 39.4948 0 48.1997 0C56.9046 0 64.001 7.09639 64.001 15.8013C64.001 24.5062 56.9046 31.6026 48.1997 31.6026ZM48.1997 1.15435C40.1193 1.15435 33.5528 7.72088 33.5528 15.8013C33.5528 23.8817 40.1193 30.4483 48.1997 30.4483C56.2802 30.4483 62.8467 23.8817 62.8467 15.8013C62.8467 7.72088 56.2802 1.15435 48.1997 1.15435Z" fill="#D3D3D3"/>
<path d="M8.89062 16.3735V14.6703H13.2999V10.2422H15.0219V14.6703H19.4311V16.3735H15.0219V20.8016H13.2999V16.3735H8.89062Z" fill="#D3D3D3"/>
<path d="M48.1992 24.3711C43.3736 24.3711 39.4375 20.4349 39.4375 15.6094H40.5918C40.5918 19.8104 43.9981 23.2167 48.1992 23.2167C52.4002 23.2167 55.8065 19.8104 55.8065 15.6094H56.9609C56.9609 20.4349 53.0247 24.3711 48.1992 24.3711Z" fill="#D3D3D3"/>
<path d="M43.8262 12.1993C44.9341 12.1993 45.8321 11.3012 45.8321 10.1934C45.8321 9.08558 44.9341 8.1875 43.8262 8.1875C42.7184 8.1875 41.8203 9.08558 41.8203 10.1934C41.8203 11.3012 42.7184 12.1993 43.8262 12.1993Z" fill="#D3D3D3"/>
<path d="M52.3653 12.1993C53.4731 12.1993 54.3712 11.3012 54.3712 10.1934C54.3712 9.08558 53.4731 8.1875 52.3653 8.1875C51.2575 8.1875 50.3594 9.08558 50.3594 10.1934C50.3594 11.3012 51.2575 12.1993 52.3653 12.1993Z" fill="#D3D3D3"/>
<path d="M28.3099 29.8802H0V1.57031H28.3099V29.8802ZM1.15435 28.7258H27.1366V2.74358H1.15435V28.7258Z" fill="#D3D3D3"/>
</g>
<defs>
<clipPath id="clip0_1019_537">
<rect width="64" height="31.6026" fill="white"/>
</clipPath>
</defs>
</svg>
