<svg width="72" height="30" viewBox="0 0 72 30" fill="none" xmlns="http://www.w3.org/2000/svg">
<g clip-path="url(#clip0_1019_511)">
<path d="M14.641 0C6.555 0 0 2.84258 0 6.34728C0 9.85198 6.555 12.6946 14.641 12.6946C22.7269 12.6946 29.282 9.85198 29.282 6.34728C29.282 2.84258 22.7269 0 14.641 0ZM14.641 9.16593C10.5621 9.16593 7.25416 7.90285 7.25416 6.34728C7.25416 4.7917 10.5621 3.52863 14.641 3.52863C18.7199 3.52863 22.0278 4.7917 22.0278 6.34728C22.0278 7.90285 18.7199 9.16593 14.641 9.16593Z" fill="#D3D3D3"/>
<path d="M0.113281 10.0566C0.113281 10.0566 3.39631 13.915 14.641 13.915H35.2317L32.9104 16.1486L35.0438 18.2015L33.1536 20.0203L35.2345 22.0226L33.2033 23.977L35.03 25.7347L33.1785 27.5163L35.1295 29.3936H14.641C4.70344 29.3936 0.113281 25.9368 0.113281 24.1552V10.0566Z" fill="#D3D3D3"/>
<path d="M29.2845 12.6918H23.8818C23.8818 12.6918 27.2837 12.1839 29.2845 10.0566V12.6918Z" fill="#D3D3D3"/>
<path d="M47.3525 8.15552H50.525L55.2257 21.459L59.8933 8.15552H63.0436V23.8894H60.9296V14.6038C60.9296 14.2821 60.9379 13.7503 60.9517 13.0084C60.9655 12.2665 60.9738 11.4688 60.9738 10.6205L56.3062 23.8921H54.112L49.4003 10.6205V11.1018C49.4003 11.4874 49.4113 12.075 49.4334 12.8648C49.4556 13.6545 49.4666 14.2342 49.4666 14.6065V23.8921H47.3525V8.15552Z" fill="#D3D3D3"/>
<path d="M63.5544 30.0001H46.664L38.2188 15.9255L46.664 1.85083H63.5544L71.9997 15.9255L63.5544 30.0001ZM47.388 28.7902H62.8276L70.5488 15.9228L62.8276 3.0554H47.388L39.6668 15.9228L47.388 28.7902Z" fill="#D3D3D3"/>
</g>
<defs>
<clipPath id="clip0_1019_511">
<rect width="72" height="30" fill="white"/>
</clipPath>
</defs>
</svg>
