<svg width="69" height="39" viewBox="0 0 69 39" fill="none" xmlns="http://www.w3.org/2000/svg">
<g clip-path="url(#clip0_1019_608)">
<path d="M8.23204 9.55858C5.61038 9.55858 3.46875 7.40975 3.46875 4.77929C3.46875 2.14883 5.61038 0 8.23204 0C10.8537 0 12.9953 2.14883 12.9953 4.77929C12.9953 7.40975 10.8537 9.55858 8.23204 9.55858ZM8.23204 1.23496C6.28734 1.23496 4.69957 2.82806 4.69957 4.77929C4.69957 6.73053 6.28734 8.32362 8.23204 8.32362C10.1767 8.32362 11.7645 6.73053 11.7645 4.77929C11.7645 2.82806 10.1767 1.23496 8.23204 1.23496Z" fill="#D3D3D3"/>
<path d="M13.4652 38.9968H12.259C11.1636 38.9968 10.2774 38.1077 10.2774 37.0085L9.24349 28.0304C9.24349 27.5735 8.93578 27.2647 8.55423 27.2647H7.93881C7.55726 27.2647 7.24955 27.5735 7.24955 27.9563L6.20335 37.0826C6.20335 37.5025 6.20335 38.9968 4.75098 38.9968H3.02783C1.93239 38.9968 1.0462 38.1077 1.0462 37.0085C1.0462 37.0085 0 29.6235 0 22.4731C0 20.5218 1.92009 10 5.31716 10H11.1513C14.5606 10 16.4684 20.5218 16.4684 22.4854C16.4684 30.9325 15.4345 37.0703 15.4222 37.132C15.4222 38.12 14.5483 39.0092 13.4529 39.0092L13.4652 38.9968ZM7.92651 26.0298H8.54192C9.60043 26.0298 10.462 26.8942 10.462 27.9563L11.4959 36.9345C11.4959 37.4161 11.8405 37.7495 12.2467 37.7495H13.4529C13.8591 37.7495 14.2037 37.4161 14.2037 36.9962C14.2283 36.8357 15.2376 30.7967 15.2376 22.4607C15.2376 19.3733 12.9606 11.2103 11.1513 11.2103H5.31716C3.49554 11.2103 1.23082 19.361 1.23082 22.4607C1.23082 29.5247 2.25241 36.8357 2.26472 36.9098C2.26472 37.4161 2.60935 37.7495 3.01552 37.7495H4.73867C4.83714 37.7495 4.87406 37.7248 4.87406 37.7248C4.89868 37.7001 4.97253 37.589 4.97253 36.9962L6.01873 27.8699C6.01873 26.8819 6.88031 26.0174 7.93881 26.0174L7.92651 26.0298Z" fill="#D3D3D3"/>
<path d="M25.7477 9.55858C23.126 9.55858 20.9844 7.40975 20.9844 4.77929C20.9844 2.14883 23.126 0 25.7477 0C28.3693 0 30.511 2.14883 30.511 4.77929C30.511 7.40975 28.3693 9.55858 25.7477 9.55858ZM25.7477 1.23496C23.803 1.23496 22.2152 2.82806 22.2152 4.77929C22.2152 6.73053 23.803 8.32362 25.7477 8.32362C27.6924 8.32362 29.2801 6.73053 29.2801 4.77929C29.2801 2.82806 27.6924 1.23496 25.7477 1.23496Z" fill="#D3D3D3"/>
<path d="M30.9685 39.0014H29.7623C28.6669 39.0014 27.7807 38.1122 27.7807 37.0131L26.7468 28.0349C26.7468 27.578 26.4391 27.2693 26.0575 27.2693H25.4421C25.0606 27.2693 24.7529 27.578 24.7529 27.9608L23.7067 37.0872C23.7067 37.5071 23.7067 39.0014 22.2543 39.0014H20.5311C19.4357 39.0014 18.5495 38.1122 18.5495 37.0131C18.5495 37.0131 17.5156 29.6157 17.5156 22.4776C17.5156 20.5264 19.4357 9.99219 22.8328 9.99219H28.6669C32.0763 9.99219 33.9841 20.514 33.9841 22.4776C33.9841 30.9247 32.9502 37.0625 32.9379 37.1242C32.9379 38.1122 32.064 39.0014 30.9685 39.0014ZM25.4298 26.0343H26.0452C27.1037 26.0343 27.9653 26.8988 27.9653 27.9608L28.9992 36.939C28.9992 37.4206 29.3438 37.7541 29.75 37.7541H30.9562C31.3624 37.7541 31.707 37.4206 31.707 37.0007C31.7316 36.8402 32.7409 30.8012 32.7409 22.4653C32.7409 19.3779 30.4639 11.2148 28.6546 11.2148H22.8205C20.9989 11.2148 18.7341 19.3655 18.7341 22.4653C18.7341 29.5292 19.7557 36.8402 19.768 36.9143C19.768 37.4206 20.1127 37.7541 20.5188 37.7541H22.242C22.3405 37.7541 22.3774 37.7294 22.3774 37.7294C22.402 37.7047 22.4758 37.5935 22.4758 37.0007L23.522 27.8744C23.522 26.8864 24.3836 26.022 25.4421 26.022L25.4298 26.0343Z" fill="#D3D3D3"/>
<path d="M43.2477 9.55858C40.626 9.55858 38.4844 7.40975 38.4844 4.77929C38.4844 2.14883 40.626 0 43.2477 0C45.8693 0 48.011 2.14883 48.011 4.77929C48.011 7.40975 45.8693 9.55858 43.2477 9.55858ZM43.2477 1.23496C41.303 1.23496 39.7152 2.82806 39.7152 4.77929C39.7152 6.73053 41.303 8.32362 43.2477 8.32362C45.1924 8.32362 46.7801 6.73053 46.7801 4.77929C46.7801 2.82806 45.1924 1.23496 43.2477 1.23496Z" fill="#D3D3D3"/>
<path d="M48.4685 39.0014H47.2623C46.1669 39.0014 45.2807 38.1122 45.2807 37.0131L44.2468 28.0349C44.2468 27.578 43.9391 27.2693 43.5575 27.2693H42.9421C42.5606 27.2693 42.2529 27.578 42.2529 27.9608L41.2067 37.0872C41.2067 37.5071 41.2067 39.0014 39.7543 39.0014H38.0311C36.9357 39.0014 36.0495 38.1122 36.0495 37.0131C36.0495 37.0131 35.0156 29.6157 35.0156 22.4776C35.0156 20.5264 36.9357 9.99219 40.3328 9.99219H46.1669C49.5763 9.99219 51.4841 20.514 51.4841 22.4776C51.4841 30.9247 50.4502 37.0625 50.4378 37.1242C50.4378 38.1122 49.564 39.0014 48.4685 39.0014ZM42.9298 26.0343H43.5452C44.6037 26.0343 45.4653 26.8988 45.4653 27.9608L46.4992 36.939C46.4992 37.4206 46.8438 37.7541 47.25 37.7541H48.4562C48.8624 37.7541 49.207 37.4206 49.207 37.0007C49.2316 36.8402 50.2409 30.8012 50.2409 22.4653C50.2409 19.3779 47.9639 11.2148 46.1546 11.2148H40.3205C38.4989 11.2148 36.2341 19.3655 36.2341 22.4653C36.2341 29.5292 37.2557 36.8402 37.268 36.9143C37.268 37.4206 37.6127 37.7541 38.0188 37.7541H39.742C39.8405 37.7541 39.8774 37.7294 39.8774 37.7294C39.902 37.7047 39.9758 37.5935 39.9758 37.0007L41.022 27.8744C41.022 26.8864 41.8836 26.022 42.9421 26.022L42.9298 26.0343Z" fill="#D3D3D3"/>
<path d="M60.7555 9.55858C58.1338 9.55858 55.9922 7.40975 55.9922 4.77929C55.9922 2.14883 58.1338 0 60.7555 0C63.3771 0 65.5188 2.14883 65.5188 4.77929C65.5188 7.40975 63.3771 9.55858 60.7555 9.55858ZM60.7555 1.23496C58.8108 1.23496 57.223 2.82806 57.223 4.77929C57.223 6.73053 58.8108 8.32362 60.7555 8.32362C62.7002 8.32362 64.2879 6.73053 64.2879 4.77929C64.2879 2.82806 62.7002 1.23496 60.7555 1.23496Z" fill="#D3D3D3"/>
<path d="M65.9842 39.0014H64.778C63.6825 39.0014 62.7963 38.1122 62.7963 37.0131L61.7624 28.0349C61.7624 27.578 61.4547 27.2693 61.0732 27.2693H60.4578C60.0762 27.2693 59.7685 27.578 59.7685 27.9608L58.7223 37.0872C58.7223 37.5071 58.7223 39.0014 57.2699 39.0014H55.5468C54.4513 39.0014 53.5651 38.1122 53.5651 37.0131C53.5651 37.0131 52.5312 29.6157 52.5312 22.4776C52.5312 20.5264 54.4513 9.99219 57.8484 9.99219H63.6825C67.0919 9.99219 68.9997 20.514 68.9997 22.4776C68.9997 30.9247 67.9658 37.0625 67.9535 37.1242C67.9535 38.1122 67.0796 39.0014 65.9842 39.0014ZM60.4454 26.0343H61.0609C62.1194 26.0343 62.9809 26.8988 62.9809 27.9608L64.0148 36.939C64.0148 37.4206 64.3595 37.7541 64.7656 37.7541H65.9718C66.378 37.7541 66.7227 37.4206 66.7227 37.0007C66.7473 36.8402 67.7565 30.8012 67.7565 22.4653C67.7565 19.3779 65.4795 11.2148 63.6702 11.2148H57.8361C56.0145 11.2148 53.7498 19.3655 53.7498 22.4653C53.7498 29.5292 54.7713 36.8402 54.7837 36.9143C54.7837 37.4206 55.1283 37.7541 55.5345 37.7541H57.2576C57.3561 37.7541 57.393 37.7294 57.393 37.7294C57.4176 37.7047 57.4915 37.5935 57.4915 37.0007L58.5377 27.8744C58.5377 26.8864 59.3992 26.022 60.4578 26.022L60.4454 26.0343Z" fill="#D3D3D3"/>
</g>
<defs>
<clipPath id="clip0_1019_608">
<rect width="69" height="39" fill="white"/>
</clipPath>
</defs>
</svg>
