<svg width="67" height="38" viewBox="0 0 67 38" fill="none" xmlns="http://www.w3.org/2000/svg">
<g clip-path="url(#clip0_1019_518)">
<path d="M49.5904 15.737L48.1237 8.75293L46.6536 15.737L39.7822 13.6047L45.1482 18.2188L39.7822 22.833L46.6536 20.7007L48.1237 27.6883L49.5904 20.7007L56.4617 22.833L51.0958 18.2188L56.4617 13.6047L49.5904 15.737Z" fill="#D3D3D3"/>
<path d="M11.1299 11.8114H22.5386L9.40234 24.8358L10.3331 25.7586L23.4694 12.7342V24.8672H23.5187L24.7844 23.6123V10.5076H12.4449L11.1299 11.8114Z" fill="#D3D3D3"/>
<path d="M48.1241 0.569773C42.3633 0.569773 37.1983 3.14598 33.7362 7.19382C30.2741 2.8174 24.9011 0 18.8759 0C8.46843 0 0 8.39628 0 18.7151C0 29.0339 8.46843 37.4302 18.8759 37.4302C24.6367 37.4302 29.8017 34.854 33.2673 30.8062C36.7259 35.1791 42.0989 38 48.1241 38C58.5316 38 67 29.6037 67 19.2849C67 8.96606 58.5316 0.569773 48.1241 0.569773ZM18.8759 36.0705C9.2229 36.0705 1.37145 28.2859 1.37145 18.7151C1.37145 9.14433 9.2229 1.35976 18.8759 1.35976C24.5874 1.35976 29.6642 4.08628 32.8619 8.29142C30.5914 11.3815 29.2482 15.1811 29.2482 19.2849C29.2482 23.1265 30.4222 26.7024 32.4353 29.6771C29.2235 33.5746 24.337 36.0705 18.8759 36.0705ZM33.6869 9.4799C35.3897 12.1575 36.3804 15.3209 36.3804 18.7151C36.3804 22.3505 35.2452 25.7272 33.3096 28.5201C31.6068 25.8425 30.6161 22.6791 30.6161 19.2849C30.6161 15.6495 31.7513 12.2728 33.6869 9.4799ZM48.1206 36.6402C42.4091 36.6402 37.3323 33.9137 34.1346 29.7086C36.4051 26.6185 37.7483 22.8189 37.7483 18.7151C37.7483 14.8735 36.5743 11.2976 34.5612 8.32288C37.773 4.42535 42.6594 1.92954 48.1206 1.92954C57.7736 1.92954 65.625 9.7141 65.625 19.2849C65.625 28.8557 57.7701 36.6402 48.1206 36.6402Z" fill="#D3D3D3"/>
</g>
<defs>
<clipPath id="clip0_1019_518">
<rect width="67" height="38" fill="white"/>
</clipPath>
</defs>
</svg>
