<svg width="36" height="30" viewBox="0 0 36 30" fill="none" xmlns="http://www.w3.org/2000/svg">
<path d="M14.641 0C6.555 0 0 2.84258 0 6.34728C0 9.85198 6.555 12.6946 14.641 12.6946C22.7269 12.6946 29.2819 9.85198 29.2819 6.34728C29.2819 2.84258 22.7269 0 14.641 0ZM14.641 9.16593C10.5621 9.16593 7.25416 7.90285 7.25416 6.34728C7.25416 4.7917 10.5621 3.52863 14.641 3.52863C18.7199 3.52863 22.0278 4.7917 22.0278 6.34728C22.0278 7.90285 18.7199 9.16593 14.641 9.16593Z" fill="#D3D3D3"/>
<path d="M0.113281 10.0566C0.113281 10.0566 3.39631 13.915 14.641 13.915H35.2317L32.9104 16.1486L35.0438 18.2015L33.1536 20.0203L35.2345 22.0226L33.2033 23.977L35.03 25.7347L33.1785 27.5163L35.1295 29.3936H14.641C4.70344 29.3936 0.113281 25.9368 0.113281 24.1552V10.0566Z" fill="#D3D3D3"/>
<path d="M29.2854 12.6918H23.8828C23.8828 12.6918 27.2847 12.1839 29.2854 10.0566V12.6918Z" fill="#D3D3D3"/>
</svg>
