<svg width="66" height="18" viewBox="0 0 66 18" fill="none" xmlns="http://www.w3.org/2000/svg">
<g clip-path="url(#clip0_1019_544)">
<path d="M8.47852 17.8789C3.80209 17.8789 0 14.0768 0 9.4004C0 4.72396 3.80209 0.921875 8.47852 0.921875C13.155 0.921875 16.957 4.72396 16.957 9.4004C16.957 14.0768 13.155 17.8789 8.47852 17.8789ZM8.47852 1.78297C4.279 1.78297 0.8611 5.20088 0.8611 9.4004C0.8611 13.5999 4.279 17.0178 8.47852 17.0178C12.678 17.0178 16.0959 13.5999 16.0959 9.4004C16.0959 5.20088 12.678 1.78297 8.47852 1.78297Z" fill="#D3D3D3"/>
<path d="M32.9082 17.8789C28.2318 17.8789 24.4297 14.0768 24.4297 9.4004C24.4297 4.72396 28.245 0.921875 32.9082 0.921875C37.5714 0.921875 41.3867 4.72396 41.3867 9.4004C41.3867 14.0768 37.5846 17.8789 32.9082 17.8789ZM32.9082 1.78297C28.7087 1.78297 25.2908 5.20088 25.2908 9.4004C25.2908 13.5999 28.7087 17.0178 32.9082 17.0178C37.1077 17.0178 40.5256 13.5999 40.5256 9.4004C40.5256 5.20088 37.121 1.78297 32.9082 1.78297Z" fill="#D3D3D3"/>
<path d="M57.5254 17.8789C52.849 17.8789 49.0469 14.0768 49.0469 9.4004C49.0469 4.72396 52.849 0.921875 57.5254 0.921875C62.2018 0.921875 66.0039 4.72396 66.0039 9.4004C66.0039 14.0768 62.2018 17.8789 57.5254 17.8789ZM57.5254 1.78297C53.3259 1.78297 49.908 5.20088 49.908 9.4004C49.908 13.5999 53.3259 17.0178 57.5254 17.0178C61.7249 17.0178 65.1428 13.5999 65.1428 9.4004C65.1428 5.20088 61.7249 1.78297 57.5254 1.78297Z" fill="#D3D3D3"/>
<path d="M25.0098 8.97656H16.5312V9.83766H25.0098V8.97656Z" fill="#D3D3D3"/>
<path d="M49.4629 8.97656H40.9844V9.83766H49.4629V8.97656Z" fill="#D3D3D3"/>
<path d="M4.60938 9.14062H13.2336V10.2402H4.60938V9.14062Z" fill="#D3D3D3"/>
<path d="M29.0391 9.95259V8.69405H32.298V5.42188H33.5698V8.69405H36.8287V9.95259H33.5698V13.2248H32.298V9.95259H29.0391Z" fill="#D3D3D3"/>
<path d="M56.625 3.63281H58.1352V7.23618L57.7643 11.9789H57.0092L56.625 7.23618V3.63281ZM56.625 13.0519H58.1087V14.6019H56.625V13.0519Z" fill="#D3D3D3"/>
</g>
<defs>
<clipPath id="clip0_1019_544">
<rect width="66" height="16.957" fill="white" transform="translate(0 0.921875)"/>
</clipPath>
</defs>
</svg>
