<svg width="78" height="43" viewBox="0 0 78 43" fill="none" xmlns="http://www.w3.org/2000/svg">
<g clip-path="url(#clip0_1019_599)">
<path d="M62.5541 15.0849L61.1374 8.30469L59.7342 15.0849L53.1094 13.0091L58.277 17.4978L53.1094 21.973L59.7342 19.8972L61.1374 26.6774L62.5541 19.8972L69.1789 21.973L64.0113 17.4978L69.1789 13.0091L62.5541 15.0849Z" fill="#D3D3D3"/>
<path d="M33.4877 12.2905H44.4841L31.8281 24.9209L32.7186 25.8241L45.3746 13.1802V24.9614H45.4285L46.6429 23.7347V11.0234H34.756L33.4877 12.2905Z" fill="#D3D3D3"/>
<path d="M16.9598 7.63281C11.5628 7.63281 10.2136 12.6877 9.94374 14.13H8.79688V16.1519H10.1056L12.089 28.4858H22.0735L24.0569 16.1519H25.1093V14.13H23.9624C23.6926 12.6742 22.3568 7.63281 16.9598 7.63281ZM16.9598 8.64378C21.4528 8.64378 22.6402 12.6877 22.9235 14.13H10.9692C11.2525 12.6877 12.4398 8.64378 16.9598 8.64378Z" fill="#D3D3D3"/>
<path d="M60.0145 0C56.2906 0 52.7286 1.11881 49.7063 3.24859C46.6705 1.11881 43.1219 0 39.398 0C35.6741 0 31.8153 1.21317 28.6985 3.53166C25.5817 1.22665 21.8983 0 17.999 0C8.0685 0 0 8.06082 0 17.9683C0 26.2718 5.81526 33.5508 13.9107 35.4514L13.9512 42.9865L21.2776 35.6266C23.9491 35.1279 26.4992 34.0226 28.685 32.3915C31.8018 34.6966 35.4852 35.9232 39.3845 35.9232C43.2839 35.9232 46.6705 34.8044 49.6928 32.6746C52.7286 34.8044 56.2771 35.9232 60.001 35.9232C69.918 35.9232 77.9865 27.8624 77.9865 17.9549C77.9865 8.04734 69.9315 0 60.0145 0ZM60.0145 34.5887C56.412 34.5887 52.9849 33.4564 50.111 31.3132L49.7063 31.0166L49.3015 31.3132C46.4141 33.4564 42.987 34.5887 39.398 34.5887C35.809 34.5887 32.0716 33.3621 29.1168 31.0301L28.6985 30.7066L28.2802 31.0301C26.1214 32.7285 23.5444 33.8743 20.8459 34.3461L20.63 34.3865L15.287 39.7514L15.26 34.373L14.7203 34.2652C6.97561 32.6746 1.34925 25.827 1.34925 17.9818C1.34925 8.80219 8.81059 1.34796 17.9855 1.34796C21.7499 1.34796 25.3119 2.57461 28.2667 4.90658L28.685 5.23009L29.1033 4.90658C32.0581 2.57461 35.6201 1.34796 39.3845 1.34796C43.1489 1.34796 46.4141 2.48025 49.288 4.62351L49.6928 4.92006L50.0976 4.62351C52.9849 2.48025 56.412 1.34796 60.001 1.34796C69.1759 1.34796 76.6373 8.80219 76.6373 17.9683C76.6373 27.1345 69.1759 34.5887 60.001 34.5887H60.0145Z" fill="#D3D3D3"/>
</g>
<defs>
<clipPath id="clip0_1019_599">
<rect width="78" height="43" fill="white"/>
</clipPath>
</defs>
</svg>
