<svg width="34" height="29" viewBox="0 0 34 29" fill="none" xmlns="http://www.w3.org/2000/svg">
<path d="M9.13281 6.30469H12.3053L17.006 19.6082L21.6735 6.30469H24.8239V22.0386H22.7098V12.753C22.7098 12.4313 22.7181 11.8994 22.732 11.1575C22.7458 10.4157 22.7541 9.61793 22.7541 8.76968L18.0865 22.0413H15.8923L11.1806 8.76968V9.25097C11.1806 9.63654 11.1916 10.2242 11.2137 11.014C11.2358 11.8037 11.2469 12.3834 11.2469 12.7557V22.0413H9.13281V6.30469Z" fill="#D3D3D3"/>
<path d="M25.3357 28.1493H8.44523L0 14.0746L8.44523 0H25.3357L33.7809 14.0746L25.3357 28.1493ZM9.16926 26.9394H24.6089L32.3301 14.072L24.6089 1.20457H9.16926L1.44807 14.072L9.16926 26.9394Z" fill="#D3D3D3"/>
</svg>
