<svg width="54" height="33" viewBox="0 0 54 33" fill="none" xmlns="http://www.w3.org/2000/svg">
<g clip-path="url(#clip0_1019_558)">
<path d="M16.5996 18.6778C16.1992 19.3494 15.817 19.8577 15.4166 20.2026C14.6704 20.8742 13.815 21.2191 12.8322 21.2191C11.6492 21.2191 10.6845 20.8016 9.93834 19.9484C9.19213 19.1134 8.82812 18.0062 8.82812 16.663C8.82812 15.4105 9.19213 14.3577 9.90194 13.4682C10.6117 12.5788 11.5764 12.1432 12.7958 12.1432C13.5784 12.1432 14.2882 12.3791 14.907 12.8511C15.5258 13.323 16.1082 14.0854 16.636 15.12C17.1456 14.1943 17.637 13.5227 18.1102 13.1052C18.82 12.4517 19.6936 12.125 20.6947 12.125C21.9323 12.125 22.8969 12.5788 23.5703 13.5045C24.2619 14.4121 24.6077 15.4649 24.6077 16.663C24.6077 17.861 24.2619 18.9501 23.5885 19.8577C22.9151 20.7653 21.9687 21.2372 20.7493 21.2372C19.8028 21.2372 19.002 20.9468 18.3468 20.3478C17.7644 19.8395 17.2548 19.1498 16.818 18.2785L16.5814 18.696L16.5996 18.6778ZM11.3216 18.7686C11.7766 19.2224 12.2862 19.4583 12.8504 19.4583C13.5602 19.4583 14.2336 19.0408 14.8524 18.1877C15.4712 17.3346 15.7806 16.79 15.7806 16.5177C15.7806 16.3362 15.453 15.8643 14.7796 15.1019C14.1062 14.3395 13.4328 13.9583 12.7412 13.9583C12.1588 13.9583 11.6492 14.2125 11.2488 14.7207C10.8483 15.229 10.6481 15.9006 10.6481 16.7537C10.6481 17.6068 10.8665 18.2966 11.3216 18.7504V18.7686ZM22.2417 14.757C21.8413 14.2488 21.2771 13.9946 20.5673 13.9946C19.8574 13.9946 19.2204 14.3758 18.6562 15.1382C18.092 15.9006 17.8008 16.3907 17.8008 16.6267C17.8008 16.8808 18.092 17.4072 18.6744 18.2059C19.2568 19.0045 19.8938 19.4039 20.5855 19.4039C21.2771 19.4039 21.8413 19.1498 22.2417 18.6234C22.6603 18.0969 22.8605 17.4253 22.8605 16.6267C22.8605 15.8824 22.6603 15.2471 22.2417 14.7389V14.757Z" fill="#D3D3D3"/>
<path d="M44.7892 25.628L41.1674 15.0818L38.9651 16.425L38.3281 15.2451L42.4232 12.9398L45.6446 22.5966L52.2877 3.10156H53.9985L46.2998 25.6461H44.7892V25.628Z" fill="#D3D3D3"/>
<path d="M33.088 33H0V0H33.088V33ZM1.82002 31.1848H31.2679V1.81518H1.82002V31.1848Z" fill="#D3D3D3"/>
</g>
<defs>
<clipPath id="clip0_1019_558">
<rect width="54" height="33" fill="white"/>
</clipPath>
</defs>
</svg>
