<svg width="64" height="33" viewBox="0 0 64 33" fill="none" xmlns="http://www.w3.org/2000/svg">
<g clip-path="url(#clip0_1019_522)">
<path d="M16.1861 32.3676C7.26199 32.3676 0.00195312 25.1076 0.00195312 16.1834C0.00195312 7.25931 7.26199 -0.000732422 16.1861 -0.000732422C25.1103 -0.000732422 32.3703 7.25931 32.3703 16.1834C32.3703 25.1076 25.1103 32.3676 16.1861 32.3676ZM16.1861 1.19024C7.91458 1.19024 1.19293 7.91189 1.19293 16.1834C1.19293 24.455 7.91458 31.1766 16.1861 31.1766C24.4577 31.1766 31.1793 24.455 31.1793 16.1834C31.1793 7.91189 24.4414 1.19024 16.1861 1.19024Z" fill="#D3D3D3"/>
<path d="M47.3648 32.3676C38.4407 32.3676 31.1807 25.1076 31.1807 16.1834C31.1807 7.25931 38.4407 -0.000732422 47.3648 -0.000732422C56.289 -0.000732422 63.549 7.25931 63.549 16.1834C63.549 25.1076 56.289 32.3676 47.3648 32.3676ZM47.3648 1.19024C39.0933 1.19024 32.3716 7.91189 32.3716 16.1834C32.3716 24.455 39.0933 31.1766 47.3648 31.1766C55.6364 31.1766 62.358 24.455 62.358 16.1834C62.358 7.91189 55.6201 1.19024 47.3648 1.19024Z" fill="#D3D3D3"/>
<path d="M42.9746 8.16772H49.7778C51.1156 8.16772 52.2087 8.54296 53.0245 9.30975C53.8565 10.0765 54.2644 11.137 54.2644 12.5237C54.2644 13.7147 53.8891 14.7425 53.155 15.6235C52.4208 16.5045 51.2951 16.945 49.7778 16.945H45.0303V23.373H42.9746V8.16772ZM50.9525 10.256C50.4957 10.0439 49.8757 9.92971 49.0926 9.92971H45.0303V15.1994H49.0926C50.0062 15.1994 50.7567 15.0036 51.3277 14.612C51.8987 14.2205 52.1924 13.5189 52.1924 12.5401C52.1924 11.4307 51.7845 10.6639 50.9688 10.2723L50.9525 10.256Z" fill="#D3D3D3"/>
<path d="M20.344 25.0287H11.3546L9.52734 13.7063H22.1549L20.344 25.0287Z" fill="#D3D3D3"/>
<path d="M23.0651 12.1033H8.38184V13.9305H23.0651V12.1033Z" fill="#D3D3D3"/>
<path d="M10.274 12.5508L9.36035 12.453C9.36035 12.453 10.0945 6.23706 15.7394 6.23706C21.3843 6.23706 22.0858 12.3877 22.1021 12.453L21.1885 12.5508C21.1885 12.5508 21.0254 11.1478 20.2749 9.79366C19.2797 8.03168 17.7624 7.15068 15.7557 7.15068C13.749 7.15068 12.1991 8.04799 11.2039 9.82629C10.4371 11.1804 10.2903 12.5345 10.2903 12.5508H10.274Z" fill="#D3D3D3"/>
</g>
<defs>
<clipPath id="clip0_1019_522">
<rect width="63.5294" height="32.3684" fill="white"/>
</clipPath>
</defs>
</svg>
