<svg width="71" height="27" viewBox="0 0 71 27" fill="none" xmlns="http://www.w3.org/2000/svg">
<path d="M36.1314 3.69423C37.1341 4.57159 38.1946 5.38468 39.1266 6.33274C43.2595 10.5396 43.2467 15.8262 39.1363 20.0106C36.2599 22.9383 32.6605 24.5259 28.7461 25.4097C21.1391 27.1291 13.7539 26.5956 6.79282 22.8258C5.58444 22.1702 4.44355 21.3154 3.43442 20.3802C-1.17735 16.1091 -1.12914 10.1571 3.48584 5.89246C6.02151 3.54961 9.03282 2.06806 12.3302 1.20034C19.3619 -0.647579 26.3069 -0.432256 33.0944 2.33802C34.1324 2.76224 35.1383 3.26037 36.1571 3.72316L36.1314 3.69423ZM25.4263 12.6157C26.3872 12.6157 27.3513 12.5964 28.3123 12.6221C29.0739 12.6414 29.3889 12.2847 29.331 11.5487C29.2989 11.1245 29.3021 10.6906 29.2186 10.2728C28.9518 8.90698 28.8104 8.7945 27.4285 8.78164C26.2522 8.772 25.076 8.78164 23.8998 8.78807C21.3609 8.7945 21.287 8.87484 21.4541 11.4202C21.4573 11.4748 21.4605 11.5262 21.4573 11.5808C21.4251 12.3361 21.8108 12.635 22.5371 12.6189C23.498 12.5996 24.4622 12.6157 25.4231 12.6125L25.4263 12.6157ZM25.1499 17.1342V17.1439C26.0048 17.1439 26.8629 17.0925 27.7113 17.1567C28.7493 17.2339 29.1703 16.7068 29.2796 15.7812C29.3118 15.5177 29.3214 15.2478 29.331 14.981C29.3792 13.5059 29.3021 13.4031 27.8688 13.3709C26.535 13.342 25.1981 13.3581 23.8644 13.3613C21.3384 13.3645 21.2709 13.4384 21.4605 15.9934C21.4637 16.048 21.4669 16.0994 21.4669 16.154C21.4476 16.8161 21.7594 17.1407 22.4278 17.1342C23.3341 17.1278 24.2436 17.1342 25.1499 17.1342ZM16.9837 17.1471C17.4626 17.1471 17.9414 17.1471 18.4203 17.1471C20.7952 17.1407 20.8467 17.086 20.7117 14.7368C20.7117 14.6821 20.7053 14.6307 20.7085 14.5761C20.7599 13.673 20.281 13.3581 19.4358 13.3645C17.6265 13.3838 15.8139 13.3548 14.0045 13.3838C13.6607 13.3902 13.0243 13.567 13.0211 13.6827C12.989 14.6179 12.9954 15.5659 13.1465 16.4851C13.275 17.2628 14.0174 17.1214 14.5862 17.1342C15.3832 17.1535 16.1835 17.1407 16.9837 17.1407V17.1471ZM16.7105 12.6125V12.6221C17.2954 12.6221 17.8803 12.6221 18.4653 12.6221C20.8017 12.6157 20.8692 12.5418 20.7117 10.1861C20.7085 10.1314 20.7053 10.08 20.7053 10.0254C20.7245 9.25085 20.371 8.81378 19.574 8.81057C17.8193 8.80414 16.0646 8.80735 14.3098 8.81378C13.6382 8.81699 13.2043 9.13194 13.095 9.82612C13.005 10.4046 12.899 10.9767 12.8251 11.5583C12.7319 12.3072 13.0886 12.6317 13.8342 12.6157C14.7919 12.5964 15.7496 12.6125 16.7073 12.6125H16.7105ZM28.4247 8.05854C27.8238 4.81263 27.0685 4.14416 24.2693 4.14416C24.1633 4.14416 24.0572 4.14416 23.9512 4.14416C21.3287 4.14738 21.2741 4.20522 21.4637 6.84373C21.4669 6.89837 21.4701 6.94979 21.4669 7.00442C21.4476 7.65039 21.7626 8.04247 22.4021 8.0489C24.3625 8.0714 26.3197 8.05854 28.4247 8.05854ZM17.0544 8.06497V8.07461C17.4272 8.07461 17.8 8.07461 18.1728 8.07461C20.7567 8.0714 21.1488 7.61504 20.6795 5.0858C20.6281 4.80299 20.4096 4.33056 20.2585 4.32413C18.6806 4.27914 17.0962 4.28235 15.5182 4.34984C15.2997 4.35948 15.0587 4.77406 14.9044 5.04402C14.5862 5.59679 14.2777 6.1592 14.0399 6.74732C13.6189 7.78858 13.741 7.98784 14.8176 8.05211C15.56 8.09711 16.3056 8.06176 17.0512 8.06176L17.0544 8.06497ZM28.6947 17.9698C26.3679 17.9698 24.2597 17.9473 22.1547 18.002C21.9233 18.0084 21.5666 18.4423 21.4991 18.7283C20.9495 21.1258 21.4573 21.7299 23.9576 21.7396C24.1697 21.7396 24.3818 21.7396 24.5971 21.7396C27.316 21.7235 27.4285 21.6464 28.3701 19.0818C28.4601 18.8375 28.5179 18.5837 28.6947 17.9698ZM13.7089 17.9441C14.0495 20.9908 14.8369 21.7428 17.4754 21.7396C17.7968 21.7396 18.115 21.7332 18.4363 21.7299C20.7599 21.7203 20.8467 21.6303 20.7117 19.2586C20.7053 19.1525 20.6988 19.0464 20.6988 18.9372C20.6988 18.2976 20.416 17.9377 19.7379 17.9377C17.7711 17.9409 15.8075 17.9377 13.7089 17.9377V17.9441ZM8.96855 13.3645C8.7018 13.3645 8.43827 13.3645 8.17153 13.3645C5.88653 13.3741 5.68728 13.6537 6.38146 15.8648C6.44573 16.0673 6.46823 16.3244 6.60642 16.4529C6.89245 16.7165 7.22989 17.086 7.56413 17.1053C8.83357 17.1825 10.1126 17.131 11.3885 17.1342C12.0859 17.1342 12.2627 16.7518 12.2755 16.1123C12.3141 13.7116 11.9991 13.3709 9.60809 13.3677C9.39598 13.3677 9.18387 13.3677 8.97176 13.3677L8.96855 13.3645ZM8.88499 12.6221V12.6092C9.6338 12.6092 10.3826 12.5964 11.1346 12.6125C11.8642 12.6285 12.0538 12.1336 12.0795 11.5712C12.1213 10.6971 12.0891 9.81969 12.0827 8.94554C12.0827 8.92305 11.9895 8.88127 11.9413 8.88448C10.3955 8.89412 8.84964 8.90055 7.30381 8.93269C7.17526 8.93269 6.96636 9.08374 6.93422 9.20586C6.65141 10.215 6.40074 11.2305 6.14042 12.2461C6.84103 12.3746 7.53841 12.5096 8.24223 12.6221C8.45113 12.6575 8.66966 12.6285 8.88499 12.6285V12.6221ZM32.9562 13.3645C32.9562 13.3645 32.9562 13.3806 32.9562 13.387C32.3166 13.387 31.6546 13.2874 31.0504 13.4255C30.7001 13.5059 30.2148 13.9494 30.1795 14.2772C30.0734 15.1835 30.1666 16.1123 30.2084 17.0282C30.2084 17.07 30.4976 17.1246 30.6519 17.1246C31.8763 17.1342 33.1008 17.1439 34.3252 17.1182C34.5663 17.1117 34.9712 16.9961 35.0162 16.8482C35.299 15.9002 35.7586 14.8975 35.6557 13.9719C35.5433 13.0013 34.4377 13.4866 33.7596 13.3709C33.4993 13.3259 33.2293 13.3645 32.9626 13.3645H32.9562ZM32.9851 12.6221V12.606C33.6214 12.606 34.261 12.6317 34.8973 12.5932C35.1383 12.5803 35.4533 12.4871 35.5947 12.3136C36.1603 11.6098 35.1287 8.93269 34.2192 8.85556C33.059 8.75914 31.8828 8.81056 30.7162 8.83306C30.0509 8.84592 29.8292 9.23478 29.8485 9.89039C29.9352 12.5032 30.0316 12.6125 32.6669 12.6189C32.773 12.6189 32.879 12.6189 32.9851 12.6189V12.6221ZM7.5352 8.03605C9.20958 8.03605 10.6397 8.0714 12.0634 8.00712C12.3623 7.99427 12.7737 7.6986 12.9183 7.419C13.4228 6.4388 13.8342 5.4136 14.2906 4.38519C11.1539 3.75208 9.97124 3.97705 7.53199 8.03605H7.5352ZM7.38737 17.9473C9.41205 21.7878 10.5401 22.1927 13.9981 21.4471C13.5996 20.4509 13.2493 19.4546 12.7897 18.5097C12.658 18.243 12.2145 17.9827 11.9059 17.9698C10.4822 17.912 9.0521 17.9441 7.38737 17.9441V17.9473ZM27.872 4.39805C28.3316 5.41039 28.7493 6.42916 29.2571 7.39972C29.405 7.68253 29.7938 8.00069 30.0863 8.01355C31.4296 8.07782 32.7762 8.04247 34.2224 8.04247C32.863 4.78049 30.8608 3.67174 27.8688 4.39805H27.872ZM28.1355 21.4728C31.4071 22.2281 33.2422 21.2157 34.3349 17.9988C32.8083 17.9988 31.2722 17.7224 29.932 18.1177C29.2668 18.3137 28.9582 19.7406 28.4987 20.6148C28.3765 20.8429 28.2962 21.0936 28.1355 21.4728ZM36.0028 17.1471C37.0152 17.1471 37.7511 17.1503 38.4871 17.1471C40.2547 17.1375 40.4025 17.0218 40.9103 15.2863C41.418 13.5509 41.2991 13.3934 39.4416 13.3645C39.1202 13.3581 38.802 13.3613 38.4807 13.3645C37.3408 13.3731 36.6584 13.9194 36.4335 15.0035C36.3049 15.6206 36.186 16.2408 36.0028 17.1503V17.1471ZM38.8599 12.6189C38.8599 12.6189 38.8599 12.6092 38.8599 12.6028C39.3934 12.6028 39.9365 12.6575 40.4571 12.5771C40.7014 12.5418 41.0581 12.275 41.0999 12.0597C41.3763 10.6521 39.9815 8.85556 38.6156 8.79128C35.8389 8.65952 35.8454 8.69808 36.4303 11.4073C36.6263 12.3136 36.967 12.7346 37.899 12.6221C38.2139 12.5835 38.5385 12.6157 38.8599 12.6157V12.6189ZM3.02949 13.3773V13.3645C2.8688 13.3645 2.71132 13.3645 2.55063 13.3645C0.914822 13.3966 0.795912 13.5573 1.22977 15.1353C1.66042 16.7036 1.99144 17.1246 3.08733 17.131C6.59356 17.1567 5.82869 17.3528 5.33698 14.3608C5.21807 13.6473 4.84527 13.3484 4.14788 13.3773C3.77508 13.3934 3.40228 13.3773 3.02949 13.3773ZM3.01985 12.6189C5.26306 12.5835 5.16665 12.9146 5.60051 10.5846C5.668 10.2182 5.84154 9.86468 5.8544 9.49831C5.86082 9.29263 5.69371 8.97447 5.51695 8.88448C4.13503 8.19031 2.06214 8.96804 1.5158 10.35C0.70914 12.3907 0.860188 12.6157 3.01663 12.6157L3.01985 12.6189ZM39.162 8.05211C37.1373 5.10187 34.5631 3.74565 32.7023 4.46554C33.4736 5.47466 34.216 6.50629 35.0355 7.47363C35.2765 7.75966 35.7264 7.99427 36.096 8.0264C37.0312 8.10353 37.9761 8.05211 39.1588 8.05211H39.162ZM33.1297 21.4889C35.5883 21.9613 38.3071 20.332 39.1973 17.9345C38.2043 17.9345 37.2466 17.8831 36.3017 17.9602C35.9321 17.9891 35.479 18.2237 35.2476 18.513C34.5277 19.4192 33.8946 20.3994 33.1297 21.4889ZM3.13876 7.66646C3.16447 7.79823 3.18696 7.92999 3.21267 8.06176C3.98719 8.06176 4.76814 8.1196 5.53302 8.03926C5.97009 7.99427 6.51643 7.83679 6.78639 7.53148C7.68303 6.51272 8.47684 5.40396 9.4249 4.18594C6.37824 3.97062 4.87098 6.01137 3.13876 7.66646ZM8.80786 21.5468C8.02691 20.438 7.3488 19.4353 6.6257 18.4712C6.45216 18.2398 6.13399 17.9955 5.87046 17.9795C4.94168 17.9184 4.00969 17.957 2.99735 17.957C4.00647 20.3705 6.50679 21.9035 8.80786 21.5468ZM26.3422 22.4755C24.806 22.4755 23.6426 22.4273 22.4825 22.4916C21.5344 22.543 21.2902 23.1183 21.4637 24.3974C21.6019 25.4354 22.2736 25.2169 22.8874 25.0273C24.1826 24.6223 25.2785 23.9121 26.3454 22.4788L26.3422 22.4755ZM15.9874 22.4755C16.9194 23.9314 17.9864 24.5838 19.2109 24.9984C19.8215 25.204 20.4931 25.4161 20.6795 24.4102C20.9013 23.2115 20.6121 22.543 19.6801 22.4916C18.5713 22.4273 17.4529 22.4755 15.9874 22.4755ZM25.6352 3.36C25.6802 3.19288 25.7252 3.02898 25.7702 2.86186C24.7257 2.31552 23.7005 1.72419 22.6239 1.24212C22.1868 1.04608 21.4958 0.853254 21.483 1.7499C21.4733 2.38623 21.2034 3.27001 22.2575 3.34072C23.3791 3.41785 24.5104 3.35679 25.6352 3.35679V3.36ZM16.3892 3.34393C17.7679 3.34393 18.8573 3.42106 19.9307 3.32143C20.9591 3.22824 20.702 2.34445 20.6667 1.70169C20.6249 0.949668 20.04 1.11678 19.5933 1.22927C18.4042 1.52493 17.3694 2.07128 16.3892 3.34393ZM11.8417 22.6684C13.7378 24.0439 15.5825 24.722 16.6334 24.5163C15.5022 22.948 14.0945 21.9228 11.8417 22.6684ZM29.9577 22.9544C27.6438 21.836 26.6025 23.3143 25.587 24.8634C27.0428 24.227 28.5019 23.5907 29.9577 22.9544ZM12.6258 2.96792C14.4352 3.72958 15.74 3.18324 16.5563 1.46066C15.2451 1.96201 13.937 2.46657 12.6258 2.96792ZM29.2089 2.9872C27.9877 2.49549 26.7664 2.00379 25.2303 1.38674C26.3454 2.95828 27.4253 3.76172 29.2089 2.9872ZM33.6889 22.7198C31.6932 22.0545 30.7772 23.3368 29.707 24.2206C30.9379 23.7578 32.1688 23.2918 33.6889 22.7198ZM8.81428 22.8708C9.88769 23.2565 10.9643 23.6421 12.0377 24.0278C11.0318 23.3786 10.2605 22.1156 8.81428 22.8708ZM29.7681 2.14841C30.4623 2.93578 31.1886 3.63638 32.5962 3.18324C31.4971 2.78152 30.6326 2.46336 29.7681 2.14841ZM11.5974 2.88757C11.5524 2.75581 11.5074 2.62405 11.4624 2.49228L9.75592 3.12539C9.79449 3.23466 9.82984 3.34715 9.8684 3.45641C10.4437 3.2668 11.0221 3.07719 11.5974 2.88436V2.88757Z" fill="#D3D3D3"/>
<path d="M36.1553 3.72063C36.5988 3.31248 36.9716 2.74686 37.4922 2.51547C43.412 -0.0844782 49.5792 -0.508697 55.8879 0.564705C59.4584 1.17211 62.8168 2.38049 65.796 4.49837C67.7949 5.91886 69.4693 7.62859 70.3563 9.96179C71.7704 13.6737 70.7613 16.8939 68.1999 19.7285C66.2941 21.8399 63.8998 23.2732 61.2678 24.2438C53.5258 27.0944 45.7806 27.0687 38.0707 24.0671C37.5758 23.8742 37.1002 23.6236 36.6309 23.3697C36.512 23.3054 36.4606 23.1254 36.2164 22.7494C36.7499 22.7494 37.1548 22.6337 37.4472 22.7655C41.0049 24.3949 44.7554 25.2015 48.6408 25.2979C54.8691 25.4522 60.8018 24.3949 65.9084 20.4998C67.9138 18.97 69.4115 17.0546 69.871 14.4771C70.3049 12.0475 69.6139 9.92322 68.126 8.02388C66.2555 5.63604 63.7713 4.06451 60.9817 3.02003C53.3426 0.162982 45.7131 0.224044 38.1189 3.26106C37.4987 3.50852 36.7981 3.5503 36.1328 3.68528L36.1585 3.71421L36.1553 3.72063Z" fill="#D3D3D3"/>
<path d="M58.0633 11.3394L57.7155 12.5873C57.6283 12.9004 57.482 13.1701 57.2833 13.3888C57.0857 13.6038 56.8434 13.7625 56.5629 13.8576L55.4306 14.2409L56.5629 14.6242C56.847 14.7203 57.0917 14.8816 57.2868 15.0967C57.482 15.3119 57.6283 15.5815 57.7155 15.8946L58.0633 17.1426L58.4111 15.8946C58.4983 15.582 58.6444 15.3125 58.8396 15.0973C59.0348 14.8815 59.2795 14.7203 59.5636 14.6242L60.6959 14.2408L59.5636 13.8575C59.2803 13.7615 59.0357 13.6005 58.8402 13.385C58.6441 13.1689 58.4981 12.8993 58.4111 12.5873L58.0633 11.3394ZM54.8186 9.58594L54.7478 9.83997C54.7106 9.97314 54.6483 10.0881 54.5653 10.1797C54.4822 10.2712 54.3779 10.34 54.2569 10.381L54.0265 10.459L54.2569 10.5371C54.3773 10.5777 54.4814 10.6464 54.5647 10.7382C54.6482 10.8299 54.7106 10.9448 54.7478 11.0781L54.8185 11.3322L54.8894 11.0781C54.9265 10.9449 54.9888 10.8299 55.0719 10.7382C55.1549 10.6468 55.2593 10.5779 55.3803 10.5371L55.6108 10.459L55.3803 10.381C55.2594 10.34 55.1549 10.2712 55.0719 10.1797C54.9888 10.0881 54.9265 9.97315 54.8894 9.83997L54.8186 9.58594ZM54.8186 16.4983L54.6696 17.0324C54.6183 17.2164 54.5324 17.3749 54.4178 17.5012C54.3031 17.6276 54.1592 17.7225 53.9924 17.779L53.5078 17.9431L53.9924 18.107C54.1592 18.1634 54.3031 18.2584 54.421 18.3886C54.5357 18.5179 54.6195 18.6739 54.6696 18.8536L54.8186 19.3878L54.9674 18.8536C55.0184 18.6704 55.1045 18.512 55.2192 18.3854C55.3347 18.2583 55.4783 18.1635 55.6448 18.1071L56.1293 17.9432L55.6448 17.779C55.4786 17.723 55.3348 17.6279 55.22 17.5013C55.1045 17.3741 55.0184 17.2156 54.9674 17.0324L54.8186 16.4984L54.8186 16.4983Z" fill="#D3D3D3"/>
<path d="M50.0789 8.14413L49.7311 9.39198C49.6439 9.70505 49.4976 9.97482 49.2989 10.1935C49.1013 10.4084 48.859 10.5672 48.5785 10.6623L47.4462 11.0456L48.5785 11.4289C48.8626 11.525 49.1073 11.6863 49.3024 11.9014C49.4976 12.1166 49.6439 12.3862 49.7311 12.6993L50.0789 13.9473L50.4267 12.6993C50.5139 12.3867 50.66 12.1172 50.8553 11.902C51.0504 11.6862 51.2952 11.5249 51.5792 11.4289L52.7115 11.0455L51.5792 10.6622C51.296 10.5662 51.0513 10.4052 50.8558 10.1897C50.6597 9.97361 50.5137 9.70398 50.4267 9.39198L50.0789 8.14413ZM46.8342 6.39062L46.7635 6.64465C46.7262 6.77783 46.6639 6.89277 46.5809 6.98439C46.4978 7.07585 46.3935 7.14468 46.2726 7.18571L46.0421 7.26366L46.2726 7.34175C46.3929 7.38239 46.497 7.45107 46.5803 7.54292C46.6638 7.63454 46.7262 7.74948 46.7634 7.88281L46.8342 8.13684L46.905 7.88281C46.9421 7.74956 47.0045 7.63454 47.0875 7.54292C47.1705 7.45146 47.2749 7.38263 47.3959 7.34175L47.6264 7.26366L47.3959 7.18571C47.275 7.14469 47.1705 7.07586 47.0875 6.98439C47.0044 6.89277 46.9421 6.77783 46.905 6.64465L46.8342 6.39062ZM46.8342 13.303L46.6852 13.8371C46.6339 14.0211 46.548 14.1796 46.4334 14.3059C46.3187 14.4323 46.1749 14.5271 46.008 14.5837L45.5234 14.7478L46.008 14.9117C46.1749 14.9681 46.3188 15.0631 46.4366 15.1933C46.5513 15.3226 46.6351 15.4786 46.6852 15.6583L46.8342 16.1925L46.983 15.6583C47.034 15.4751 47.1202 15.3167 47.2348 15.1901C47.3503 15.063 47.4939 14.9682 47.6604 14.9118L48.1449 14.7479L47.6604 14.5837C47.4942 14.5277 47.3504 14.4326 47.2356 14.306C47.1201 14.1788 47.0341 14.0203 46.9831 13.8371L46.8342 13.303Z" fill="#D3D3D3"/>
</svg>
