<svg width="89" height="37" viewBox="0 0 89 37" fill="none" xmlns="http://www.w3.org/2000/svg">
<g clip-path="url(#clip0_948_9079)">
<mask id="mask0_948_9079" style="mask-type:luminance" maskUnits="userSpaceOnUse" x="0" y="0" width="89" height="37">
<path d="M88.802 0.507812H0.367188V36.5078H88.802V0.507812Z" fill="white"/>
</mask>
<g mask="url(#mask0_948_9079)">
<path d="M77.4052 0.507812C76.2297 4.76091 75.0685 8.96135 73.908 13.1631C73.9275 13.169 73.9453 13.1762 73.9648 13.1822C74.1497 12.8568 74.3214 12.523 74.5236 12.2083C75.3672 10.8947 76.495 9.92564 78.038 9.48301C79.7745 8.98413 81.3859 9.6206 82.1273 11.134C82.4948 11.8853 82.5384 12.7001 82.4557 13.516C82.3145 14.8966 81.7695 16.1647 81.2848 17.4484C80.9299 18.3924 80.544 19.3255 80.2288 20.2814C80.1191 20.6104 80.1363 20.9981 80.1725 21.351C80.2058 21.6681 80.5159 21.8295 80.8168 21.6979C81.1235 21.5628 81.4313 21.3941 81.677 21.174C82.6751 20.2803 83.4365 19.1999 84.1314 18.0705C84.1997 17.9605 84.2704 17.8516 84.3651 17.702C85.3293 18.4737 86.2733 19.231 87.2507 20.0146C86.905 20.5901 86.6363 21.1045 86.3061 21.5771C85.2184 23.1312 83.8954 24.4592 82.2438 25.4378C80.9173 26.2238 79.4754 26.5624 77.9323 26.2956C76.449 26.0396 75.5567 24.909 75.2845 23.5906C75.064 22.5318 75.1576 21.485 75.513 20.4765C76.0482 18.9535 76.6363 17.4472 77.1939 15.9302C77.3592 15.4804 77.4615 15.015 77.3788 14.5317C77.2834 13.9778 77.0061 13.778 76.4416 13.8617C75.8851 13.9443 75.4694 14.2649 75.1076 14.6585C74.314 15.5223 73.7822 16.544 73.3332 17.6064C72.141 20.4322 71.3313 23.3716 70.6899 26.359C70.629 26.6425 70.5331 26.749 70.2265 26.7717C68.8259 26.8746 67.4264 27.0087 66.0269 27.1318C65.923 27.1414 65.8208 27.1498 65.6772 27.163C65.7955 26.6856 65.9064 26.237 66.0327 25.7261C65.9132 25.8063 65.838 25.8493 65.7697 25.902C64.3765 26.9895 62.775 27.6009 61.0384 27.9059C59.914 28.1033 58.781 28.2421 57.6406 28.0961C55.6739 27.8461 54.0481 27.0134 52.9369 25.3445C52.87 25.244 52.814 25.1351 52.7325 24.9963C52.6643 25.0837 52.6035 25.1579 52.5463 25.2356C51.7164 26.3566 50.8048 27.4106 49.6463 28.2158C48.0167 29.3464 46.2339 29.5629 44.3756 28.8582C43.503 28.528 43.0065 27.7971 42.6621 26.9692C42.5769 26.7658 42.5087 26.5552 42.4174 26.3016C42.3274 26.4212 42.2641 26.5085 42.196 26.5935C41.3027 27.7169 40.3389 28.7697 39.0513 29.472C38.0424 30.0211 36.9569 30.2759 35.8142 29.9983C34.6824 29.7244 33.8926 29.0293 33.4691 27.9502C33.4423 27.8808 33.4131 27.8126 33.379 27.7312C33.1393 28.0698 32.9202 28.4072 32.6744 28.723C31.4185 30.3357 29.7561 31.0428 27.7104 30.7461C26.5214 30.5738 25.6294 29.8895 24.9734 28.9084C24.2371 27.809 23.939 26.5696 23.8441 25.2847C23.5921 21.8643 24.5487 18.7836 26.7234 16.1061C27.6642 14.948 28.8409 14.0471 30.3573 13.6799C32.2424 13.2228 33.8634 13.6488 35.1789 15.0844C35.1972 15.1036 35.224 15.1155 35.2617 15.1406C35.3883 14.6645 35.5051 14.1955 35.6426 13.7337C35.6669 13.65 35.7704 13.5351 35.847 13.5279C37.378 13.3832 38.9101 13.2528 40.4423 13.1211C40.4594 13.12 40.4776 13.1307 40.5238 13.1451C40.5008 13.2384 40.4788 13.3329 40.4533 13.4274C39.6452 16.4076 38.825 19.3854 38.0388 22.3715C37.8636 23.0355 37.7991 23.7282 37.7066 24.4101C37.6798 24.6075 37.7102 24.8217 37.7613 25.0179C37.8538 25.3768 38.1374 25.5215 38.5025 25.433C38.971 25.3194 39.3361 25.0406 39.6707 24.7164C40.6224 23.7928 41.2808 22.6718 41.8966 21.5221C42.3542 20.6679 42.7156 19.7909 42.8568 18.8219C42.97 18.0502 43.1781 17.2917 43.3546 16.4842C42.8531 16.5284 42.3724 16.5703 41.8637 16.6157C41.8832 16.5009 41.8905 16.4291 41.9088 16.3586C42.1729 15.2818 42.4431 14.2063 42.701 13.1283C42.7399 12.9668 42.8045 12.8974 42.9785 12.8891C43.357 12.8687 43.7342 12.8149 44.1139 12.7982C44.3123 12.7898 44.3829 12.7096 44.4316 12.5289C44.8964 10.8229 45.3771 9.12048 45.8408 7.41447C45.8968 7.21107 45.982 7.13451 46.1986 7.11775C47.6468 7.00053 49.0925 6.8689 50.5395 6.74093C50.6235 6.73373 50.7075 6.72653 50.8328 6.71461C50.2596 8.59645 49.6974 10.4472 49.1181 12.3471C50.2328 12.249 51.2953 12.1557 52.3966 12.0588C52.3626 12.2071 52.3418 12.3124 52.3151 12.4177C52.0547 13.4478 51.7893 14.4754 51.5387 15.5079C51.4912 15.7029 51.4097 15.7771 51.2027 15.7926C50.228 15.8668 49.2544 15.9601 48.2796 16.0427C48.1397 16.0546 48.0423 16.0702 47.9973 16.2425C47.5506 17.9868 47.0894 19.7287 46.8825 21.5197C46.812 22.1263 46.7912 22.7508 46.8472 23.3573C46.9494 24.4783 48.0119 24.9401 49.011 24.3359C49.5976 23.9806 50.0235 23.465 50.4215 22.9302C50.7294 22.5163 51.0117 22.0844 51.2941 21.6537C51.7066 21.0208 51.9463 20.3472 52.0522 19.5828C52.4356 16.8227 53.6209 14.4431 55.8553 12.6713C57.6296 11.2644 59.6763 10.6782 61.9561 11.0742C63.1861 11.2883 64.1003 12.0026 64.778 12.9967C65.6979 14.3462 65.8977 15.8632 65.7214 17.4449C65.6858 17.7678 65.6175 18.0885 65.5446 18.4056C65.5279 18.4821 65.4326 18.591 65.3648 18.5982C63.7776 18.7477 62.1898 18.8853 60.5601 19.0289C60.5842 18.8805 60.6014 18.7573 60.6273 18.6364C60.8081 17.7739 60.9253 16.9065 60.7559 16.0296C60.5991 15.2124 59.9738 14.9372 59.2272 15.3296C58.5755 15.673 58.1798 16.2461 57.8525 16.8574C57.0698 18.3218 56.7144 19.8759 56.9748 21.5317C57.088 22.2542 57.3558 22.9195 57.8829 23.453C58.4853 24.0644 59.2605 24.2175 60.0817 24.1517C61.0689 24.0716 62.0302 23.8646 62.9426 23.4674C64.2221 22.9111 65.1506 21.9695 65.9184 20.8581C66.8504 19.5086 67.5079 18.0203 68.1758 16.5356C68.8195 15.1071 69.0958 13.5805 69.488 12.0851C70.4343 8.47085 71.3531 4.85064 72.2783 1.23162C72.3282 1.03541 72.4011 0.944488 72.6263 0.926543C74.1222 0.806905 75.6152 0.670519 77.1094 0.538918C77.1939 0.53174 77.2777 0.524562 77.4063 0.512598L77.4052 0.507812ZM28.8008 24.2869C28.8215 24.4161 28.8336 24.653 28.8994 24.8755C29.1878 25.8673 29.7451 26.3793 30.7504 26.1114C31.0948 26.0192 31.4221 25.7692 31.6923 25.5228C32.2923 24.9736 32.6525 24.257 32.9835 23.5332C33.6529 22.0628 34.0532 20.5112 34.4135 18.9475C34.4881 18.6245 34.3858 18.3657 34.1068 18.171C33.1588 17.5106 31.9917 17.4712 31.04 18.0933C30.4717 18.4653 30.109 19.0192 29.7999 19.5995C29.0344 21.0351 28.7192 22.5701 28.802 24.2881L28.8008 24.2869Z" fill="white"/>
<path d="M1.02435 36.502C2.99585 28.7483 4.95273 21.0569 6.91447 13.3439C8.5574 13.1991 10.2271 13.0531 11.9345 12.9024C11.0291 16.7021 10.1285 20.4826 9.22066 24.2942C9.68311 24.2536 10.1261 24.2464 10.5569 24.171C13.0261 23.7427 15.112 22.6074 16.7817 20.7757C18.6084 18.7706 19.4298 16.4101 19.1755 13.7207C18.9893 11.7539 17.9244 10.3003 16.3058 9.20682C15.0049 8.3287 13.5531 7.84895 11.9771 7.85733C11.1288 7.86211 10.2709 7.97573 9.43848 8.13846C7.16886 8.5847 5.17666 9.61598 3.39136 11.0481C3.33294 11.0947 3.2721 11.139 3.17717 11.2107C2.24862 9.95095 1.32373 8.69596 0.367188 7.39788C1.06451 6.899 1.71437 6.38099 2.41657 5.94312C4.26028 4.7958 6.24638 3.9715 8.39552 3.55995C10.4291 3.17112 12.476 2.98569 14.5339 3.36015C17.193 3.84349 19.5065 4.98243 21.3855 6.92054C23.1294 8.71868 24.0823 10.8554 24.2441 13.3367C24.4109 15.9065 23.9473 18.3507 22.7558 20.6477C21.7579 22.5715 20.3596 24.177 18.6327 25.5086C16.9642 26.7947 15.1035 27.7254 13.0845 28.3476C11.5451 28.8213 9.96179 29.0558 8.34809 29.0726C8.13148 29.0749 8.06573 29.1407 8.0195 29.3405C7.53638 31.4569 7.035 33.5697 6.55791 35.6885C6.4971 35.96 6.38024 36.0378 6.11373 36.0594C4.54262 36.185 2.97394 36.3297 1.40405 36.4673C1.30182 36.4769 1.19838 36.4853 1.02922 36.5008L1.02435 36.502Z" fill="white"/>
<path d="M87.0874 0.507812C87.3809 0.507812 87.6628 0.579595 87.9321 0.724356C88.202 0.869116 88.4139 1.07609 88.5684 1.34527C88.7229 1.61446 88.7998 1.8968 88.7998 2.19111C88.7998 2.48542 88.724 2.76297 88.573 3.02976C88.4226 3.29535 88.2107 3.50233 87.9402 3.65188C87.6703 3.80023 87.3855 3.8744 87.0874 3.8744C86.7894 3.8744 86.5057 3.80023 86.2341 3.65188C85.9642 3.50353 85.7534 3.29535 85.6013 3.02976C85.4508 2.76417 85.375 2.48422 85.375 2.19111C85.375 1.898 85.4519 1.61446 85.6064 1.34527C85.7609 1.07609 85.9728 0.869116 86.2427 0.724356C86.5132 0.579595 86.794 0.507812 87.0874 0.507812ZM87.0897 0.836814C86.8549 0.836814 86.6286 0.89424 86.4132 1.01029C86.1968 1.12634 86.0273 1.29263 85.9022 1.50918C85.7781 1.72572 85.7161 1.95303 85.7161 2.18991C85.7161 2.42679 85.7764 2.65052 85.8981 2.86467C86.0199 3.07881 86.1893 3.24511 86.4069 3.36594C86.6251 3.48558 86.8526 3.5466 87.0909 3.5466C87.3298 3.5466 87.5595 3.48678 87.7759 3.36594C87.993 3.2463 88.1618 3.07881 88.2847 2.86467C88.4065 2.65052 88.4685 2.42559 88.4685 2.18991C88.4685 1.95423 88.4065 1.72572 88.2824 1.50918C88.1584 1.29263 87.9878 1.12634 87.7702 1.01029C87.5537 0.89424 87.3269 0.836814 87.092 0.836814H87.0897ZM86.3145 3.09078V1.30579H86.6831C87.0288 1.30579 87.2224 1.30699 87.2649 1.31058C87.3866 1.32135 87.4819 1.34408 87.5497 1.38236C87.618 1.41945 87.6737 1.47687 87.7202 1.55344C87.765 1.63001 87.7886 1.71615 87.7886 1.80947C87.7886 1.93867 87.7455 2.04874 87.6594 2.13966C87.5744 2.23179 87.4538 2.28801 87.2982 2.30955C87.3527 2.32989 87.3952 2.35262 87.4257 2.37654C87.4549 2.40047 87.4963 2.44593 87.5485 2.51413C87.5618 2.53207 87.6071 2.60386 87.6823 2.73186L87.8965 3.09197H87.44L87.2884 2.80245C87.1862 2.60745 87.1006 2.48542 87.034 2.43397C86.9668 2.38372 86.8818 2.3586 86.7796 2.3586H86.6831V3.09197H86.3145V3.09078ZM86.6831 2.07625H86.833C87.0461 2.07625 87.1787 2.06788 87.2298 2.05233C87.2809 2.03677 87.3223 2.00806 87.3516 1.96739C87.3809 1.92671 87.3964 1.88125 87.3964 1.8298C87.3964 1.77836 87.382 1.73529 87.3527 1.69701C87.3234 1.65872 87.2821 1.63001 87.2287 1.61326C87.1747 1.59651 87.0438 1.58813 86.833 1.58813H86.6831V2.07625Z" fill="white"/>
</g>
</g>
<defs>
<clipPath id="clip0_948_9079">
<rect width="88.4348" height="36" fill="white" transform="translate(0.367188 0.507812)"/>
</clipPath>
</defs>
</svg>
