<svg width="13" height="15" viewBox="0 0 13 15" fill="none" xmlns="http://www.w3.org/2000/svg">
<path d="M5.43901 2.7724L6.13631 0L6.83339 2.7728C7.07212 3.72362 7.47483 4.54622 8.01564 5.20679C8.55324 5.86378 9.22631 6.35752 10.0043 6.64856L12.2727 7.50079L10.0043 8.35144C9.22507 8.64441 8.55258 9.13657 8.01209 9.79634C7.47519 10.4534 7.07184 11.276 6.83306 12.2268L6.1364 15L5.43909 12.2268C5.20449 11.2942 4.81211 10.4841 4.27517 9.8129C3.72337 9.13701 3.04964 8.64404 2.26843 8.35103L0 7.50039L2.26843 6.64816C3.04964 6.35478 3.72304 5.86261 4.25998 5.20638C4.79656 4.55056 5.19861 3.72794 5.43901 2.7724Z" fill="#D3D3D3"/>
</svg>
