<svg width="15" height="15" viewBox="0 0 15 15" fill="none" xmlns="http://www.w3.org/2000/svg">
<circle cx="7.5" cy="7.5" r="7.5" fill="white"/>
<path d="M7.09421 4.76132L7.49792 3.15625L7.90149 4.76155C8.0397 5.31203 8.27285 5.78827 8.58595 6.17071C8.89719 6.55107 9.28686 6.83692 9.73727 7.00542L11.0506 7.49881L9.73727 7.99129C9.28614 8.16091 8.89681 8.44584 8.58389 8.82782C8.27305 9.20821 8.03954 9.68445 7.90129 10.2349L7.49796 11.8405L7.09426 10.2349C6.95844 9.69497 6.73127 9.226 6.42041 8.8374C6.10095 8.4461 5.71089 8.1607 5.25862 7.99106L3.94531 7.49858L5.25862 7.00519C5.71089 6.83533 6.10076 6.55039 6.41161 6.17047C6.72227 5.79079 6.95503 5.31453 7.09421 4.76132Z" fill="#1F00FF"/>
</svg>
