<svg width="30" height="31" viewBox="0 0 30 31" fill="none" xmlns="http://www.w3.org/2000/svg">
<ellipse cx="15" cy="15.0617" rx="15" ry="15.0226" fill="#1F00FF"/>
<path d="M14.439 10.8313L15.1363 8.05469L15.8334 10.8317C16.0721 11.7839 16.4748 12.6078 17.0156 13.2693C17.5532 13.9273 18.2263 14.4218 19.0043 14.7133L21.2727 15.5668L19.0043 16.4187C18.2251 16.7121 17.5526 17.205 17.0121 17.8658C16.4752 18.5238 16.0718 19.3476 15.8331 20.2999L15.1364 23.0773L14.4391 20.2999C14.2045 19.3658 13.8121 18.5546 13.2752 17.8824C12.7234 17.2055 12.0496 16.7117 11.2684 16.4183L9 15.5664L11.2684 14.7129C12.0496 14.419 12.723 13.9261 13.26 13.2689C13.7966 12.6121 14.1986 11.7882 14.439 10.8313Z" fill="white"/>
</svg>
