<?xml version="1.0" encoding="UTF-8"?>
<svg xmlns="http://www.w3.org/2000/svg" width="64" height="28" viewBox="0 0 64 28" fill="none">
  <g clip-path="url(#clip0_1019_714)">
    <path d="M27.6283 28H0V0H27.6283V28ZM1.37045 26.6111H26.2578V1.38889H1.37045V26.6111Z" fill="#1F00FF"></path>
    <path d="M5.96364 5.39062H9.8009L13.8437 11.6684L17.9414 5.39062L21.5457 5.47396L15.6116 14.099L21.806 23.2517H18.0236L13.6519 16.5573L9.40347 23.2517H5.64844L11.8566 14.099L5.96364 5.39062Z" fill="#1F00FF"></path>
    <path d="M39.5799 25.7257H38.4287C34.5778 25.7257 31.4531 22.559 31.4531 18.6562C31.4531 17.5868 31.6998 16.5035 32.1658 15.5451L39.0043 1.40625L45.8428 15.5451C46.3088 16.5035 46.5555 17.5868 46.5555 18.6562C46.5555 22.559 43.4309 25.7257 39.5799 25.7257ZM39.0043 4.55903L33.3992 16.1562C33.0291 16.934 32.8236 17.7951 32.8236 18.6562C32.8236 21.7812 35.3315 24.3368 38.4287 24.3368H39.5799C42.6634 24.3368 45.185 21.7951 45.185 18.6562C45.185 17.7951 44.9932 16.934 44.6094 16.1562L39.0043 4.55903Z" fill="#1F00FF"></path>
    <path d="M57.0252 25.7257H55.874C52.0231 25.7257 48.8984 22.559 48.8984 18.6562C48.8984 17.5868 49.1451 16.5035 49.6111 15.5451L56.4496 1.40625L63.2882 15.5451C63.7541 16.5035 64.0008 17.5868 64.0008 18.6562C64.0008 22.559 60.8762 25.7257 57.0252 25.7257ZM56.4496 4.55903L50.8445 16.1562C50.4745 16.934 50.2689 17.7951 50.2689 18.6562C50.2689 21.7812 52.7768 24.3368 55.874 24.3368H57.0252C60.1087 24.3368 62.6303 21.7951 62.6303 18.6562C62.6303 17.7951 62.4385 16.934 62.0548 16.1562L56.4496 4.55903Z" fill="#1F00FF"></path>
  </g>
  <defs>
    <clipPath id="clip0_1019_714">
      <rect width="64" height="28" fill="white"></rect>
    </clipPath>
  </defs>
</svg>
