<?xml version="1.0" encoding="UTF-8"?>
<svg xmlns="http://www.w3.org/2000/svg" width="65" height="35" viewBox="0 0 65 35" fill="none">
  <g clip-path="url(#clip0_1250_409)">
    <path d="M47.5664 0C37.9445 0 30.1328 7.8523 30.1328 17.493C30.1328 27.1337 37.9584 34.986 47.5664 34.986C57.1744 34.986 65.0139 27.1337 65.0139 17.493C65.0139 7.8523 57.1744 0 47.5664 0ZM47.5664 33.6028C38.7243 33.6028 31.5253 26.3792 31.5253 17.507C31.5253 8.63473 38.7104 1.39721 47.5664 1.39721C56.4224 1.39721 63.6215 8.62076 63.6215 17.493C63.6215 26.3653 56.4224 33.5888 47.5664 33.5888V33.6028Z" fill="#1F00FF"></path>
    <path d="M26.8048 9.61277C26.5542 9.40318 26.3036 9.17963 26.0668 8.95608C24.9807 7.99201 23.8946 7.02794 22.8085 6.07784C22.3351 5.65867 21.792 5.58881 21.2072 5.84031C21.1793 5.84031 21.1097 5.84031 21.0958 5.84031C20.9147 5.67265 20.7476 5.50498 20.5666 5.33732C20.5249 5.2954 20.5249 5.26746 20.5666 5.22554C20.6502 5.12774 20.7337 5.02993 20.8312 4.93213C21.0401 4.6946 21.0261 4.42913 20.7894 4.21955C20.4274 3.8982 20.0793 3.59081 19.7172 3.26945C19.3413 2.93412 18.7982 2.92015 18.4083 3.24151C17.4893 4.00997 16.7095 4.90418 16.069 5.91017C15.7905 6.3433 15.874 6.88822 16.25 7.22354C16.612 7.5449 16.9741 7.86626 17.3222 8.17364C17.5589 8.38322 17.8235 8.35528 18.0324 8.11776C18.1159 8.00598 18.2134 7.90817 18.2969 7.7964C18.3387 7.74051 18.3665 7.74051 18.4083 7.7964C18.5754 7.96406 18.7425 8.11776 18.9235 8.28542C18.9653 8.31336 18.9653 8.35528 18.9514 8.3972C18.7843 8.81636 18.8121 9.22155 19.0349 9.62674C19.0628 9.68263 19.0488 9.72454 19.0071 9.76646C18.4362 10.4231 17.8653 11.0659 17.2804 11.7225C16.1943 12.9521 15.1082 14.1956 14.0221 15.4251C13.9524 15.509 13.9524 15.509 13.8689 15.4251C13.5069 15.006 13.1448 14.6008 12.7828 14.1816C12.0309 13.3154 11.265 12.4631 10.5131 11.5968C9.98394 10.996 9.4548 10.3952 8.92567 9.7944C8.88389 9.73851 8.88389 9.71057 8.92567 9.66865C9.17631 9.4451 9.42695 9.22155 9.6776 8.998C10.2346 8.50897 10.7916 8.01995 11.3346 7.53093C11.5435 7.34929 11.5853 7.12574 11.4321 6.88821C11.1815 6.497 10.9308 6.09181 10.6523 5.71456C10.0536 4.90418 9.34341 4.19161 8.53578 3.57684C8.28514 3.38123 8.06234 3.38123 7.82563 3.59081C7.58891 3.80039 7.33826 4.02394 7.10155 4.23352C6.09898 5.11376 5.11033 5.994 4.10776 6.88821C3.03557 7.83831 1.96337 8.78841 0.891178 9.73851C0.779782 9.83632 0.710159 9.96207 0.696234 10.1158C0.640536 10.507 0.584837 10.9122 0.529139 11.3034C0.459516 11.7784 0.389893 12.2675 0.32027 12.7425C0.264572 13.1477 0.208873 13.5529 0.13925 13.9441C0.0974765 14.2655 0.0417781 14.5728 4.35486e-06 14.8942C-0.0278448 15.0479 4.35021e-06 15.1876 0.111401 15.2854C0.417742 15.5649 0.724083 15.8583 1.04435 16.1237C1.21144 16.2635 1.44816 16.2495 1.61526 16.1098C1.79628 15.9561 1.9773 15.7884 2.15832 15.6347L5.30527 12.8403C5.3749 12.7844 5.44452 12.7146 5.51414 12.6587C5.56984 12.7146 5.61162 12.7565 5.63946 12.7984C6.51671 13.8044 7.39396 14.7964 8.28514 15.8024C9.16239 16.7944 10.0396 17.7864 10.9169 18.7924C10.9587 18.8343 10.9587 18.8623 10.9169 18.9042C10.3181 19.5888 9.71937 20.2734 9.12061 20.9581C8.29906 21.8942 7.46359 22.8443 6.64204 23.7804C5.82048 24.7166 4.99893 25.6527 4.17738 26.5888C3.77357 27.0359 3.38368 27.497 2.97987 27.9441C2.79885 28.1537 2.74315 28.4052 2.771 28.6846C2.81277 29.006 2.97987 29.2575 3.21659 29.4671C3.74572 29.9281 4.27485 30.4032 4.80399 30.8782C5.2635 31.2834 5.94581 31.2974 6.36354 30.8223C7.10155 29.9701 7.85347 29.1317 8.59148 28.2794C9.37125 27.3992 10.151 26.505 10.9308 25.6247C11.9055 24.521 12.8803 23.4032 13.855 22.2994C13.9246 22.2156 13.9246 22.2156 13.9942 22.2994C14.4537 22.8164 14.9132 23.3473 15.3728 23.8643C16.5146 25.1637 17.6564 26.4631 18.7982 27.7625C19.7033 28.7964 20.6084 29.8303 21.5135 30.8643C21.6388 31.018 21.8059 31.1158 22.0009 31.1577C22.4047 31.2555 22.7528 31.1297 23.0591 30.8503C23.4072 30.5429 23.7554 30.2355 24.1035 29.9142C24.3263 29.7186 24.563 29.5229 24.7719 29.2994C25.1478 28.9082 25.1896 28.2794 24.8136 27.8742C24.0756 27.0359 23.3376 26.1976 22.5996 25.3593C21.9312 24.5908 21.2489 23.8223 20.5806 23.0539C19.3691 21.6707 18.1437 20.2874 16.9323 18.9042C16.8766 18.8343 16.8766 18.8064 16.9323 18.7505C17.6285 17.9541 18.3387 17.1577 19.0349 16.3613C19.9122 15.3553 20.7894 14.3633 21.6806 13.3573C21.8895 13.1198 22.0983 12.8962 22.3072 12.6447C22.3629 12.7006 22.4186 12.7425 22.4743 12.7844C22.6971 12.98 22.8642 13.008 23.1288 12.8683C23.5326 12.6587 23.9503 12.491 24.4098 12.4491C24.925 12.4072 25.3706 12.5469 25.7048 12.9661C26.039 13.3712 26.2061 13.8603 26.2757 14.3772C26.3314 14.7685 26.3453 15.1597 26.3593 15.5509C26.3732 15.8443 26.5542 16.0399 26.8605 16.0399C27.139 16.0399 27.4036 16.0399 27.6821 16.0399C27.9188 16.0399 28.0998 15.8862 28.1555 15.6627C28.1555 15.6068 28.1834 15.5509 28.1973 15.495C28.3644 14.7964 28.4619 14.0838 28.4479 13.3573C28.434 12.519 28.2669 11.7086 27.877 10.9681C27.5985 10.4371 27.2504 9.9481 26.8048 9.55688V9.61277ZM1.43424 15.0898C1.36926 15.1457 1.30427 15.1457 1.23929 15.0898C1.16967 15.02 1.08612 14.9501 1.0165 14.8802C0.98865 14.8663 0.974726 14.8243 0.974726 14.8104C1.0165 14.5728 1.04435 14.3353 1.0722 14.1118C1.1279 13.7066 1.18359 13.3014 1.25322 12.9102C1.30892 12.505 1.36461 12.0998 1.43424 11.6946C1.48994 11.2894 1.54563 10.8982 1.60133 10.493C1.60133 10.4231 1.64311 10.3673 1.6988 10.3114C2.75707 9.37524 3.80142 8.45309 4.85969 7.51696C5.95973 6.53891 7.05977 5.56087 8.15982 4.5968C8.21551 4.54091 8.25729 4.54091 8.31299 4.5968C9.13454 5.28143 9.83077 6.07784 10.4156 6.97205C10.462 7.04656 10.4527 7.11643 10.3878 7.18163C8.91174 8.495 7.42181 9.7944 5.94581 11.1078C4.44195 12.4351 2.95202 13.7625 1.44816 15.0898H1.43424ZM13.2701 21.6287C12.4347 22.5649 11.6131 23.515 10.7916 24.4511C9.95609 25.4012 9.13454 26.3373 8.29906 27.2874C7.56106 28.1257 6.80913 28.978 6.07113 29.8164C5.94581 29.9561 5.82048 30.1098 5.69516 30.2495C5.65339 30.3054 5.61162 30.3194 5.54199 30.2774C5.50022 30.2495 5.44452 30.2215 5.41667 30.1936C4.88754 29.7325 4.37233 29.2715 3.84319 28.8104C3.82927 28.7964 3.80142 28.7824 3.78749 28.7685C3.6761 28.6567 3.6761 28.6008 3.78749 28.489C4.34448 27.8463 4.90146 27.2176 5.47237 26.5748C6.21037 25.7365 6.94838 24.8982 7.68638 24.0599C8.64718 22.9561 9.6219 21.8663 10.5827 20.7625C10.889 20.4132 11.1954 20.0639 11.5017 19.7146C11.5435 19.6726 11.5713 19.6307 11.641 19.5609C11.6549 19.6028 11.6688 19.6307 11.6827 19.6447C12.2119 20.2595 12.7549 20.8603 13.2841 21.475C13.3258 21.5309 13.3398 21.5589 13.2841 21.6148L13.2701 21.6287ZM17.8931 21.4192C19.0488 22.7325 20.2046 24.0599 21.3743 25.3732C22.2933 26.4212 23.2262 27.4691 24.1452 28.517C24.2009 28.5728 24.2009 28.6287 24.1592 28.6846C24.1174 28.7405 24.0617 28.7964 24.006 28.8383C23.4908 29.2854 22.9895 29.7465 22.4743 30.1936C22.4604 30.1936 22.4464 30.2215 22.4325 30.2355C22.3072 30.3194 22.2654 30.3194 22.1819 30.2076C21.3186 29.2295 20.4552 28.2515 19.6058 27.2734C18.7147 26.2535 17.8096 25.2335 16.9184 24.2136C15.7626 22.9002 14.6208 21.5868 13.4651 20.2734C12.7271 19.4351 11.9891 18.5828 11.2372 17.7445C10.1928 16.5569 9.16239 15.3832 8.11804 14.1956C7.51928 13.5249 6.93445 12.8403 6.33569 12.1697C6.28 12.1044 6.28 12.0439 6.33569 11.988C6.92053 11.471 7.51928 10.9401 8.10412 10.4231C8.13197 10.3952 8.15982 10.3812 8.18766 10.3533C8.38261 10.5768 8.57755 10.7864 8.75857 11.01C9.80292 12.1976 10.8333 13.3712 11.8777 14.5589L14.9272 18.0239C15.9158 19.1557 16.9184 20.2874 17.907 21.4192H17.8931ZM21.5831 12.1697C20.8869 12.9521 20.1907 13.7485 19.5084 14.5309C18.6729 15.481 17.8374 16.4311 17.0019 17.3812C16.7791 17.6327 16.5703 17.8703 16.3475 18.1217C16.3057 18.1776 16.2779 18.1776 16.2222 18.1217C15.7348 17.5629 15.2474 17.018 14.7601 16.4591C14.7183 16.4032 14.6765 16.3613 14.6348 16.3194C14.5512 16.2215 14.5512 16.2215 14.6348 16.1377C14.9829 15.7465 15.3171 15.3553 15.6652 14.9641C16.5842 13.9162 17.5171 12.8683 18.4362 11.8204C18.84 11.3593 19.2438 10.8982 19.6476 10.4511C19.6755 10.4231 19.6894 10.3952 19.7033 10.3673C19.94 10.5768 20.1628 10.7724 20.3856 10.9681C20.7894 11.3174 21.1793 11.6806 21.5831 12.0299C21.6527 12.0858 21.6388 12.1277 21.5831 12.1836V12.1697ZM27.4593 14.5728C27.4315 14.7265 27.4036 14.8802 27.3758 15.0479C27.3758 15.0898 27.3618 15.1317 27.3479 15.1597C27.3479 15.1597 27.334 15.1597 27.3201 15.1597C27.3201 15.0758 27.3061 15.006 27.2922 14.9221C27.2504 14.3633 27.153 13.8044 26.9441 13.2734C26.7074 12.6866 26.3593 12.1836 25.8023 11.8762C25.3428 11.6108 24.8554 11.5409 24.3402 11.5828C23.8807 11.6247 23.449 11.7645 23.0174 11.9601C22.9617 11.988 22.9338 11.988 22.8781 11.9461C21.9034 11.0798 20.9287 10.2136 19.9539 9.3473C19.7172 9.13772 19.6894 8.8443 19.8843 8.60678C20.0793 8.36925 20.0653 8.11776 19.8425 7.8942C19.578 7.64271 19.2995 7.37724 19.0349 7.12574C18.9792 7.06985 18.9653 7.02794 19.0349 6.95808C19.1185 6.87424 19.1881 6.77644 19.2577 6.67863C19.4109 6.46905 19.383 6.18961 19.1881 6.03592C19.0071 5.88223 18.7147 5.8962 18.5476 6.09181C18.2691 6.41317 18.0045 6.73452 17.726 7.05588C17.6982 7.0978 17.6564 7.13971 17.6146 7.18163C17.4475 7.04191 17.2943 6.88822 17.1273 6.74849C17.0437 6.67863 16.9741 6.60877 16.8905 6.53891C16.8209 6.48303 16.8209 6.44111 16.8627 6.37125C17.2247 5.81237 17.6146 5.2954 18.0881 4.82035C18.3805 4.52694 18.6868 4.26147 18.9792 3.98203C19.0349 3.92614 19.0767 3.92614 19.1324 3.98203C19.3552 4.17764 19.578 4.37325 19.8008 4.56885C19.8565 4.61077 19.8565 4.65269 19.8008 4.70857C19.7172 4.79241 19.6337 4.89021 19.5501 4.98802C19.3691 5.1976 19.3691 5.46307 19.5641 5.65867C19.9679 6.04989 20.3856 6.44111 20.8033 6.83233C20.9844 6.99999 21.2629 6.98602 21.4439 6.80438C21.6806 6.56686 21.9591 6.56686 22.2097 6.77644C23.3794 7.82434 24.563 8.85827 25.7327 9.90618C26.0111 10.1577 26.3036 10.3952 26.5403 10.6607C27.0276 11.2056 27.3201 11.8623 27.4454 12.5748C27.5707 13.2455 27.5568 13.9022 27.4454 14.5589L27.4593 14.5728Z" fill="#1F00FF"></path>
    <path d="M47.5803 6.59482C42.8181 6.59482 40.9662 10.6747 40.5763 13.1198H39.6712V15.0898H40.9244L42.846 27.0639H52.5096L54.4312 15.0898H55.4477V13.1198H54.5566C54.1806 10.6747 52.3286 6.59482 47.5803 6.59482ZM47.5803 7.99202C51.7299 7.99202 52.8578 11.7226 53.1363 13.1198H41.9966C42.2751 11.7365 43.4308 7.99202 47.5803 7.99202Z" fill="#1F00FF"></path>
  </g>
  <defs>
    <clipPath id="clip0_1250_409">
      <rect width="65" height="35" fill="white"></rect>
    </clipPath>
  </defs>
</svg>
