<?xml version="1.0" encoding="UTF-8"?>
<svg xmlns="http://www.w3.org/2000/svg" width="63" height="29" viewBox="0 0 63 29" fill="none">
  <g clip-path="url(#clip0_1250_413)">
    <path d="M48.3889 0C45.4028 0 42.5417 0.882129 40.0972 2.56369C37.6528 0.882129 34.8056 0 31.8056 0C28.8056 0 25.7222 0.964829 23.2083 2.78422C20.6944 0.964829 17.7361 0 14.6111 0C6.55556 0 0 6.5057 0 14.5C0 22.4943 6.55556 29 14.6111 29C17.7361 29 20.6944 28.0352 23.2083 26.2158C25.7222 28.0352 28.6806 29 31.8056 29C34.9306 29 37.6528 28.1179 40.0972 26.4363C42.5417 28.1179 45.3889 29 48.3889 29C56.4444 29 63 22.4943 63 14.5C63 6.5057 56.4444 0 48.3889 0ZM48.3889 27.6217C45.5278 27.6217 42.8056 26.7258 40.5139 25.0442L40.0972 24.741L39.6806 25.0442C37.3889 26.7395 34.6667 27.6217 31.8056 27.6217C28.9444 27.6217 25.9861 26.6431 23.6389 24.8099L23.2083 24.4791L22.7778 24.8099C20.4306 26.6431 17.5972 27.6217 14.6111 27.6217C7.31944 27.6217 1.38889 21.7362 1.38889 14.5C1.38889 7.26378 7.31944 1.37833 14.6111 1.37833C17.6111 1.37833 20.4306 2.34316 22.7778 4.19011L23.2083 4.52091L23.6389 4.19011C25.9861 2.35694 28.8194 1.37833 31.8056 1.37833C34.7917 1.37833 37.3889 2.27424 39.6806 3.9558L40.0972 4.25903L40.5139 3.9558C42.8056 2.27424 45.5278 1.37833 48.3889 1.37833C55.6806 1.37833 61.6111 7.26378 61.6111 14.5C61.6111 21.7362 55.6806 27.6217 48.3889 27.6217Z" fill="#1F00FF"></path>
    <path d="M13.7782 5.95435C9.73655 5.95435 8.1671 9.38638 7.84766 11.4263H7.22266V13.0389H8.26432L9.86155 22.894H17.8893L19.4865 13.0389H20.3338V11.4263H19.7088C19.3893 9.38638 17.8338 5.95435 13.7921 5.95435H13.7782ZM13.7782 7.33267C17.1115 7.33267 18.056 10.2961 18.2782 11.4263H9.25043C9.48655 10.2961 10.431 7.33267 13.7643 7.33267H13.7782Z" fill="#1F00FF"></path>
  </g>
  <defs>
    <clipPath id="clip0_1250_413">
      <rect width="63" height="29" fill="white"></rect>
    </clipPath>
  </defs>
</svg>
